<?xml version="1.0" encoding="UTF-8"?><svg id="DNV-logo" xmlns="http://www.w3.org/2000/svg" viewBox="0 0 142.58 121.85"><defs><style>.cls-1{fill:#3f9c35;}.cls-2{fill:#003591;}.cls-3{fill:#99d9f0;}.cls-4{fill:#0f214a;}</style></defs><path class="cls-1" d="M0,46.42H142.58v5.8H0v-5.8Z"/><path class="cls-2" d="M0,58.02H142.58v11.6H0v-11.6Z"/><path class="cls-3" d="M0,0H142.58V34.81H0V0Z"/><path class="cls-4" d="M29.85,87.09c-3.17-1.33-6.58-1.97-10.01-1.88H0v36.63H19.83c3.43,.09,6.85-.55,10.01-1.88,2.69-1.16,4.95-3.14,6.45-5.67,1.59-2.91,2.37-6.19,2.25-9.5v-2.54c.12-3.31-.65-6.59-2.25-9.5-1.5-2.52-3.75-4.51-6.45-5.67Zm2.69,17.51c.27,3.27-.89,6.49-3.17,8.84-2.69,2.11-6.07,3.14-9.48,2.88H6.11v-25.59h13.77c3.4-.25,6.77,.75,9.48,2.81,2.31,2.37,3.47,5.62,3.17,8.91v2.15Zm51.87,9.24l-28.33-28.63h-5.96v36.63h5.96v-28.59l28.33,28.59h6.01v-36.63h-6.01v28.63Zm51.68-28.63l-14.02,28.63-14.02-28.63h-6.89l18.37,36.63h4.74l18.32-36.63h-6.5Z"/></svg>