<?xml version="1.0" encoding="UTF-8"?><svg id="HERA_logo" xmlns="http://www.w3.org/2000/svg" viewBox="0 0 247.72 121.85"><defs><style>.cls-1{fill:#29aae1;}.cls-2{fill:#636466;}</style></defs><g><path class="cls-2" d="M24.44,10.56h18.55v27h20.27V10.56h18.63V87.71h-18.63v-31.21h-20.27v31.21H24.44V10.56Z"/><path class="cls-2" d="M86.08,10.56h47.96V27.03h-30.02v12.89h20.95v15.73h-20.95v14.58h30.89v17.47h-48.82V10.56Z"/><path class="cls-2" d="M197.73,87.71l-18.25-31.09c2.06-1.04,3.82-2.41,5.28-4.12,3.76-4.39,5.64-10.47,5.64-18.26s-1.72-13.42-5.17-17.52c-3.45-4.1-8.64-6.16-15.56-6.16h-31.8V87.71h19.21v-28.63h4.75l16.04,28.63h19.85Zm-40.65-61.47h5.45c3.57,0,6.01,.84,7.31,2.53,1.29,1.68,1.94,3.74,1.94,6.16s-.75,4.53-2.24,6.13c-1.49,1.6-4.08,2.39-7.77,2.39h-4.69V26.24Z"/><path class="cls-2" d="M225.92,10.56h-19.43l-16.06,57.17,12.03,19.98h.55l2.81-11.48h20.22l2.89,11.48h18.65L225.92,10.56Zm-16.23,48.99l6.3-27.11,6.36,27.11h-12.66Z"/><polygon class="cls-1" points="9.89 56.3 20.7 56.3 20.7 41.88 .14 41.88 9.89 56.3"/></g><g><path class="cls-2" d="M85.13,98.35h1.57v1.75h-1.57v-1.75Zm0,3.46h1.57v9.15h-1.57v-9.15Z"/><path class="cls-2" d="M89.3,101.76h1.47v1.3c.43-.54,.9-.92,1.38-1.16,.49-.23,1.03-.35,1.62-.35,1.3,0,2.19,.45,2.64,1.36,.25,.5,.38,1.21,.38,2.14v5.89h-1.57v-5.79c0-.56-.08-1.01-.25-1.36-.27-.57-.77-.86-1.49-.86-.37,0-.67,.04-.9,.11-.42,.13-.8,.38-1.12,.76-.26,.3-.42,.62-.5,.94s-.12,.79-.12,1.39v4.81h-1.54v-9.19Z"/><path class="cls-2" d="M99.34,101.76h1.47v1.3c.43-.54,.9-.92,1.38-1.16,.49-.23,1.03-.35,1.62-.35,1.3,0,2.19,.45,2.64,1.36,.25,.5,.38,1.21,.38,2.14v5.89h-1.57v-5.79c0-.56-.08-1.01-.25-1.36-.27-.57-.77-.86-1.49-.86-.37,0-.67,.04-.9,.11-.42,.13-.8,.38-1.12,.76-.26,.3-.42,.62-.5,.94s-.12,.79-.12,1.39v4.81h-1.54v-9.19Z"/><path class="cls-2" d="M116.08,102.68c.82,.79,1.23,1.95,1.23,3.48s-.36,2.71-1.08,3.67-1.84,1.45-3.36,1.45c-1.26,0-2.27-.43-3.01-1.28-.74-.86-1.12-2-1.12-3.45,0-1.54,.39-2.77,1.18-3.69,.78-.92,1.84-1.37,3.16-1.37,1.18,0,2.19,.39,3,1.18Zm-.96,6.11c.38-.78,.57-1.64,.57-2.59,0-.86-.14-1.56-.41-2.09-.43-.85-1.18-1.27-2.25-1.27-.94,0-1.63,.36-2.06,1.08s-.64,1.59-.64,2.61,.21,1.79,.64,2.45,1.11,.98,2.04,.98c1.02,0,1.73-.39,2.11-1.16Z"/><path class="cls-2" d="M120.16,101.76l2.45,7.48,2.57-7.48h1.69l-3.47,9.19h-1.65l-3.39-9.19h1.79Z"/><path class="cls-2" d="M133.38,105.38c.35-.05,.59-.19,.71-.45,.07-.14,.1-.33,.1-.59,0-.53-.19-.91-.56-1.15s-.91-.36-1.61-.36c-.81,0-1.38,.22-1.72,.65-.19,.24-.31,.6-.37,1.07h-1.44c.03-1.13,.4-1.92,1.1-2.36s1.53-.67,2.46-.67c1.08,0,1.96,.21,2.63,.62,.67,.41,1,1.05,1,1.92v5.29c0,.16,.03,.29,.1,.39s.2,.15,.42,.15c.07,0,.15,0,.23-.01s.18-.02,.27-.04v1.14c-.24,.07-.42,.11-.55,.13s-.3,.03-.51,.03c-.53,0-.92-.19-1.16-.57-.13-.2-.21-.48-.27-.85-.31,.41-.77,.77-1.36,1.07s-1.24,.45-1.95,.45c-.85,0-1.55-.26-2.09-.78s-.81-1.17-.81-1.94c0-.85,.27-1.51,.8-1.98s1.23-.76,2.09-.87l2.46-.31Zm-3.25,4.18c.33,.26,.71,.39,1.16,.39,.54,0,1.07-.13,1.58-.38,.86-.42,1.29-1.1,1.29-2.05v-1.24c-.19,.12-.43,.22-.73,.3s-.59,.14-.88,.17l-.94,.12c-.56,.07-.98,.19-1.26,.35-.48,.27-.71,.7-.71,1.29,0,.45,.16,.8,.49,1.06Z"/><path class="cls-2" d="M138.81,99.2h1.56v2.57h1.47v1.26h-1.47v6c0,.32,.11,.54,.33,.64,.12,.06,.32,.09,.6,.09,.07,0,.15,0,.24,0s.19,0,.3-.02v1.22c-.18,.05-.36,.09-.55,.11s-.4,.03-.62,.03c-.72,0-1.21-.18-1.47-.55s-.39-.85-.39-1.44v-6.08h-1.24v-1.26h1.24v-2.57Z"/><path class="cls-2" d="M143.64,98.35h1.57v1.75h-1.57v-1.75Zm0,3.46h1.57v9.15h-1.57v-9.15Z"/><path class="cls-2" d="M154.52,102.68c.82,.79,1.23,1.95,1.23,3.48s-.36,2.71-1.08,3.67-1.84,1.45-3.36,1.45c-1.26,0-2.27-.43-3.01-1.28s-1.12-2-1.12-3.45c0-1.54,.39-2.77,1.18-3.69s1.84-1.37,3.16-1.37c1.18,0,2.19,.39,3,1.18Zm-.96,6.11c.38-.78,.57-1.64,.57-2.59,0-.86-.14-1.56-.41-2.09-.43-.85-1.18-1.27-2.25-1.27-.94,0-1.63,.36-2.06,1.08s-.64,1.59-.64,2.61,.21,1.79,.64,2.45,1.11,.98,2.04,.98c1.02,0,1.73-.39,2.11-1.16Z"/><path class="cls-2" d="M157.85,101.76h1.47v1.3c.43-.54,.9-.92,1.38-1.16s1.03-.35,1.62-.35c1.3,0,2.19,.45,2.64,1.36,.25,.5,.38,1.21,.38,2.14v5.89h-1.57v-5.79c0-.56-.08-1.01-.25-1.36-.27-.57-.77-.86-1.49-.86-.37,0-.67,.04-.9,.11-.42,.13-.79,.38-1.12,.76-.26,.3-.42,.62-.5,.94s-.12,.79-.12,1.39v4.81h-1.54v-9.19Z"/><path class="cls-2" d="M173.03,98.35h1.57v1.75h-1.57v-1.75Zm0,3.46h1.57v9.15h-1.57v-9.15Z"/><path class="cls-2" d="M177.2,101.76h1.47v1.3c.43-.54,.9-.92,1.38-1.16s1.03-.35,1.62-.35c1.3,0,2.19,.45,2.64,1.36,.25,.5,.38,1.21,.38,2.14v5.89h-1.57v-5.79c0-.56-.08-1.01-.25-1.36-.27-.57-.77-.86-1.49-.86-.37,0-.67,.04-.9,.11-.42,.13-.79,.38-1.12,.76-.26,.3-.42,.62-.5,.94s-.12,.79-.12,1.39v4.81h-1.54v-9.19Z"/><path class="cls-2" d="M204.06,101.63c.4,.16,.76,.44,1.09,.84,.26,.33,.44,.73,.53,1.2,.06,.31,.09,.78,.09,1.38l-.02,5.89h-2.51v-5.96c0-.35-.06-.65-.17-.88-.22-.43-.62-.65-1.2-.65-.67,0-1.14,.28-1.4,.84-.13,.3-.2,.66-.2,1.07v5.57h-2.46v-5.57c0-.55-.06-.96-.17-1.21-.21-.45-.61-.68-1.21-.68-.7,0-1.17,.23-1.41,.68-.13,.26-.2,.64-.2,1.15v5.63h-2.48v-9.34h2.38v1.36c.3-.49,.59-.83,.86-1.04,.48-.37,1.09-.55,1.84-.55,.72,0,1.29,.16,1.73,.47,.35,.29,.62,.67,.81,1.12,.32-.55,.72-.95,1.19-1.21,.5-.26,1.06-.39,1.68-.39,.41,0,.82,.08,1.22,.24Z"/><path class="cls-2" d="M214.37,101.79c.65,.29,1.19,.75,1.62,1.38,.38,.56,.63,1.2,.75,1.93,.07,.43,.09,1.05,.08,1.86h-6.81c.04,.94,.36,1.6,.98,1.97,.37,.23,.82,.35,1.35,.35,.56,0,1.01-.14,1.36-.43,.19-.15,.36-.37,.5-.64h2.5c-.07,.55-.37,1.12-.91,1.69-.84,.91-2.01,1.36-3.52,1.36-1.24,0-2.34-.38-3.29-1.15-.95-.77-1.43-2.02-1.43-3.74,0-1.62,.43-2.86,1.29-3.73,.86-.86,1.97-1.3,3.34-1.3,.81,0,1.55,.15,2.2,.44Zm-3.66,2.11c-.35,.36-.56,.84-.65,1.45h4.21c-.04-.65-.26-1.14-.65-1.48-.39-.34-.87-.5-1.45-.5-.63,0-1.11,.18-1.46,.53Z"/><path class="cls-2" d="M217.36,103.43v-1.74h1.3v-2.61h2.42v2.61h1.52v1.74h-1.52v4.94c0,.38,.05,.62,.15,.72s.39,.14,.89,.14c.07,0,.15,0,.24,0s.16,0,.24-.01v1.83l-1.16,.04c-1.16,.04-1.94-.16-2.37-.6-.27-.28-.41-.71-.41-1.3v-5.76h-1.3Z"/><path class="cls-2" d="M228.14,105.26c.46-.06,.78-.13,.98-.21,.35-.15,.53-.38,.53-.7,0-.38-.13-.65-.4-.79s-.67-.22-1.19-.22c-.59,0-1,.14-1.24,.43-.17,.21-.29,.5-.35,.86h-2.36c.05-.82,.28-1.49,.69-2.02,.65-.82,1.76-1.24,3.34-1.24,1.03,0,1.94,.2,2.74,.61s1.2,1.17,1.2,2.3v4.29c0,.3,0,.66,.02,1.08,.02,.32,.07,.54,.15,.65s.2,.21,.36,.28v.36h-2.66c-.07-.19-.13-.37-.15-.53s-.05-.35-.07-.57c-.34,.37-.73,.68-1.17,.94-.53,.3-1.13,.45-1.8,.45-.85,0-1.55-.24-2.11-.73s-.83-1.17-.83-2.06c0-1.15,.45-1.98,1.34-2.5,.49-.28,1.21-.48,2.16-.6l.84-.1Zm1.5,1.14c-.16,.1-.32,.18-.47,.24s-.38,.12-.66,.17l-.56,.1c-.52,.09-.9,.2-1.12,.33-.39,.22-.58,.57-.58,1.04,0,.42,.12,.72,.35,.91,.23,.19,.52,.28,.86,.28,.53,0,1.03-.15,1.48-.46,.45-.31,.68-.87,.7-1.69v-.91Z"/><path class="cls-2" d="M236.97,110.95h-2.45v-12.65h2.45v12.65Z"/><path class="cls-2" d="M241.51,107.97c.05,.43,.16,.74,.34,.93,.3,.33,.87,.49,1.69,.49,.48,0,.87-.07,1.15-.21s.43-.36,.43-.64-.11-.48-.34-.63-1.08-.39-2.56-.74c-1.06-.26-1.81-.59-2.25-.99-.43-.39-.65-.95-.65-1.68,0-.86,.34-1.61,1.02-2.23,.68-.62,1.64-.93,2.87-.93s2.12,.23,2.86,.7c.74,.47,1.16,1.27,1.27,2.42h-2.45c-.03-.31-.12-.56-.27-.75-.27-.33-.73-.5-1.38-.5-.53,0-.91,.08-1.14,.25-.23,.17-.34,.36-.34,.58,0,.28,.12,.48,.36,.61,.24,.13,1.09,.36,2.55,.68,.97,.23,1.7,.57,2.19,1.04,.48,.47,.72,1.06,.72,1.76,0,.93-.35,1.68-1.04,2.27-.69,.59-1.76,.88-3.2,.88s-2.56-.31-3.26-.93c-.7-.62-1.05-1.41-1.05-2.37h2.48Z"/></g></svg>