<?xml version="1.0" encoding="UTF-8"?><svg id="ilac-MRA-IANZ-logo" xmlns="http://www.w3.org/2000/svg" viewBox="0 0 247.72 121.85"><defs><style>.cls-1{fill:#041973;}.cls-2{fill:#056dc0;fill-rule:evenodd;}</style></defs><g><path class="cls-2" d="M97.14,51.51c2.99,2.5,2.98,5.42,1.3,8.6,.39,0,.81,0,1.23,0,1.36,0,2.7,0,4.07,.01,.32,0,.48-.07,.59-.41,.64-2.04,1.33-4.06,1.98-6.09,.32-.98,.6-1.97,.93-2.95,.05-.13,.26-.29,.41-.31,1.12-.02,2.26-.03,3.38,0,.15,0,.37,.2,.42,.36,.48,1.43,.92,2.88,1.39,4.32,.43,1.31,.86,2.62,1.3,3.94,.13,.37,.19,.88,.46,1.07,.27,.19,.76,.06,1.16,.05,1.28-.01,2.55-.03,3.83-.02,.1,0,.2,.14,.29,.23,.03,.02,.02,.09,.02,.14,.06,1.16,.05,1.17-1.1,1.18-1.14,.01-2.29,.02-3.43-.01-.35-.01-.38,.12-.29,.39,.27,.86,.53,1.73,.86,2.55,.06,.19,.34,.39,.55,.41,.96,.12,1.92,.18,2.88,.25,.02,0,.04-.01,.05,0,.1,.14,.32,.33,.29,.4-.22,.37,.31,1.1-.39,1.15-.75,.06-1.5-.11-2.26-.22-.38-.05-.5,.05-.38,.43,.3,.92,.67,1.82,.91,2.74,.15,.58,.47,.74,1,.72,.42-.02,.6,.16,.47,.6-.08,.32-.07,.75-.28,.93-.15,.14-.58-.04-.89-.09-1.4-.25-2.8-.5-4.19-.74-.31-.05-.45-.16-.34-.51,.13-.35,.22-.73,.29-1.1,.03-.12,.04-.26,0-.38-.27-.92-.54-1.84-.84-2.75-.04-.11-.27-.22-.41-.22-2.06,0-4.13,0-6.19,0-.1,0-.27,.09-.29,.16-.29,.92-.55,1.84-.82,2.76-.13,.44-.24,.87-.4,1.29-.05,.14-.24,.33-.38,.34-1.13,.01-2.25-.02-3.38-.04-.02,0-.05-.04-.11-.1,.95-2.94,1.89-5.89,2.88-8.92h-8.64c.1,.12,.16,.23,.25,.29,1.18,.83,1.97,1.95,2.59,3.23,.78,1.66,1.64,3.27,2.47,4.9,.16,.3,.34,.61-.22,.79,.2,.04,.41,.08,.6,.13,1.24,.33,2.49,.65,3.73,.99,.09,.03,.25,.14,.25,.18-.1,.42-.2,.83-.36,1.23-.02,.06-.29,.07-.43,.02-1.55-.41-3.09-.87-4.64-1.28-.93-.24-1.87-.41-2.82-.62-1.46-.34-2.91-.67-4.38-.98-1-.21-2.02-.4-3.02-.58-.27-.05-.42,.04-.35,.32,.08,.37-.07,.45-.4,.45-.86-.01-1.71,0-2.57,0-.26,.01-.34-.09-.34-.33,0-.33,.09-.76-.08-.97-.15-.18-.6-.14-.91-.2q-.84-.19-.84,.67c0,.81,0,.82-.8,.83-.66,0-1.32,0-1.99,0-.28,0-.45-.06-.42-.41,.03-.4-.01-.81,.03-1.21,.03-.34-.12-.46-.44-.5-.75-.07-1.51-.16-2.26-.21-.1,0-.3,.14-.33,.24-.12,.54-.24,1.09-.32,1.65-.04,.33-.18,.42-.5,.42-.82,0-1.65,.03-2.47,0-.14,0-.35-.2-.4-.34-.17-.66-.29-1.32-.42-1.98-.05-.28-.17-.43-.47-.44-.69-.05-1.38-.09-2.07-.16-.3-.03-.4,.06-.39,.37,.02,.7,0,1.42,.03,2.13,.02,.34-.1,.46-.44,.44-.8-.03-1.61-.03-2.42,0-.33,0-.42-.11-.4-.42,.02-.76,0-1.51,.02-2.27,0-.33-.1-.45-.44-.45-3.98,0-7.97-.02-11.95-.04-.51,0-1.02,0-1.54,.03-.17,.02-.38,.11-.5,.23-1.11,1.2-2.48,1.95-4.05,2.31-.94,.21-1.95,.27-2.92,.26-1.73-.03-3.41-.32-4.91-1.22-.1-.06-.21-.1-.3-.18-.35-.3-.71-.35-1.2-.27-1.09,.21-2.21,.29-3.31,.42-.08,0-.15,.03-.27,.05,.07,.16,.12,.28,.19,.47-.13,.02-.24,.08-.35,.08-.97-.01-1.93-.06-2.9-.03-.68,.03-1.36,.19-2.04,.3-1.32,.25-2.63,.51-3.93,.78-1.4,.31-2.79,.64-4.18,.97-1.19,.28-2.38,.57-3.56,.87-1.02,.27-2.02,.54-3.02,.84-.31,.09-.42,0-.52-.29-.36-1.1-.34-1.11,.79-1.39,1.17-.28,2.32-.65,3.48-.95,.76-.2,1.51-.35,2.26-.52,.16-.03,.3-.11,.47-.16,0-.04,0-.09-.02-.13-.27-.07-.55-.09-.81-.2-2.58-1.14-4-3.52-3.2-6.39,.14-.5,.39-.96,.58-1.45,.04-.09,.05-.2,.03-.3-.01-.04-.13-.08-.21-.07-.49,0-.99,.03-1.48,.01-.33-.02-.45,.06-.45,.42,.02,2.64,.02,5.29,.05,7.93,0,.33-.09,.44-.45,.44-1.4-.02-2.8-.02-4.21,.01-.38,0-.51-.09-.52-.47,.02-2.52,.01-5.03,.02-7.55,0-.76,.01-.76-.76-.77-.09,0-.16,0-.24,0-1.31,.02-1.02-.14-1.04,1.1-.03,2.27-.01,4.55-.01,6.82,0,.1,.01,.19,.03,.28,.07,.47-.02,.56-.49,.56-.77-.02-1.55-.03-2.33-.03-.22,0-.4,.05-.33,.33,.09,.31-.09,.4-.35,.44-1.61,.29-3.23,.57-4.84,.88-.29,.06-.4,0-.42-.28-.01-.13-.01-.26-.04-.39q-.12-.8,.66-.93c.88-.15,1.77-.29,2.65-.47,.1-.02,.23-.26,.24-.38,.02-.92,0-1.83,.02-2.75,0-.3-.09-.39-.4-.36-1.11,.11-2.22,.19-3.32,.3-.41,.04-.61-.07-.56-.52,.03-.32-.1-.73,.06-.92,.16-.18,.59-.12,.9-.15,1.01-.09,2.01-.16,3.02-.28,.11,0,.28-.19,.28-.29,.01-.89,.02-1.77-.01-2.67,0-.1-.2-.3-.3-.3-1.26,0-2.51,.02-3.77,.04-.33,.02-.47-.06-.44-.43,.07-1.13,.06-1.13,1.19-1.13,1.01,0,2.02,.02,3.03,0,.11,0,.29-.19,.3-.3,.02-.94,.03-1.88,0-2.81,0-.1-.17-.28-.28-.28-1.23-.12-2.47-.22-3.69-.33-.06,0-.18-.01-.18-.03-.05-.42-.1-.85-.08-1.29,0-.09,.32-.23,.48-.22,.96,.06,1.92,.16,2.89,.26q.86,.08,.87-.75c0-.76-.02-1.52,0-2.28,0-.28-.05-.4-.39-.44-1.03-.14-2.07-.33-3.09-.52-.08-.02-.19-.19-.2-.29-.02-.13,.06-.26,.08-.38,.18-.9,.18-.89,1.06-.74,1.35,.24,2.69,.49,4.04,.7,.41,.07,.76,.12,.56,.73,.26,0,.46,0,.66,0,.71,0,1.42-.01,2.13-.02,.25,0,.42,.02,.41,.37-.02,2.72-.02,5.45-.04,8.18,0,.32,.12,.47,.45,.45,.42-.02,.84-.02,1.26,0,.29,.01,.36-.13,.36-.38,0-3.63,0-7.25-.03-10.88,0-.14-.14-.34-.25-.38-.45-.14-.93-.26-1.4-.36-.12-.02-.35,.03-.36,.08-.08,.39-.34,.33-.62,.33-1.42,0-2.84,0-4.26,.04-.33,0-.39-.14-.38-.4,0-.42,0-.84,.01-1.26,.02-.26-.07-.35-.34-.41-.69-.15-1.37-.35-2.03-.57-.11-.03-.23-.44-.2-.46,.37-.27-.2-1.16,.67-1.03,.49,.08,.95,.3,1.42,.45,.13,.04,.27,.06,.47,.12,0-.39,.03-.72,0-1.02-.04-.35,.09-.47,.42-.47,1.47,.01,2.96,0,4.44,0,.31,0,.42,.12,.4,.43-.04,.68-.02,1.36-.04,2.03-.02,.35,.06,.53,.46,.58,.41,.05,.81,.2,1.2,.34,.32,.12,.41,.02,.4-.29-.01-.88,0-1.77-.03-2.67,0-.32,.09-.43,.41-.42,1.45,.02,2.9,.02,4.36,0,.32,0,.41,.11,.4,.43-.02,1.35-.01,2.7-.03,4.06,0,.34,.11,.46,.45,.53,1.81,.45,3.6,.93,5.41,1.4,.79,.19,1.59,.37,2.4,.55,.12,.02,.26,.02,.38,0,1.93-.35,3.82-.08,5.69,.41,.52,.14,1.05,.34,1.51,.6,.69,.41,1.39,.7,2.2,.79,1.43,.14,2.86,.4,4.3,.59,.14,.02,.33-.12,.44-.22,.92-.84,1.97-1.44,3.15-1.82,1.9-.61,3.83-.62,5.78-.27,1.53,.27,2.94,.79,4.13,1.82,.4,.34,.71,.78,1.02,1.22,.2,.27,.4,.44,.77,.44,3.95-.04,7.9-.04,11.85-.07,.1,0,.19,0,.29,0,.34,.06,.45-.08,.45-.42-.02-.88,0-1.77-.03-2.65-.01-.42,.1-.58,.57-.56,1.45,.03,2.91,.02,4.36-.01,.37,0,.49,.12,.56,.48,.14,.83,.32,1.63,.52,2.45,.03,.13,.25,.3,.37,.29,1.25-.08,2.51-.19,3.76-.31,.16-.02,.39-.19,.43-.33,.18-.69,.34-1.41,.47-2.12,.06-.32,.19-.47,.54-.47,1.49,.02,3,.02,4.49,0,.32,0,.45,.12,.44,.42-.01,.41,.02,.82-.04,1.21-.07,.47,.12,.53,.51,.43,.34-.08,.7-.09,1.04-.19,.13-.04,.28-.24,.3-.38,.04-.35,0-.71-.01-1.06-.02-.29,.06-.44,.41-.43,2.24,.02,4.5-.13,6.71,.11,2.11,.24,4-.46,5.96-.88,1.51-.3,2.99-.76,4.47-1.16,.36-.09,.71-.23,1.07-.31,.13-.02,.37,.05,.4,.14,.14,.34,.23,.7,.3,1.05,.02,.06-.15,.21-.23,.24-1.28,.36-2.54,.72-3.81,1.05-1.18,.31-2.36,.6-3.55,.9Zm-47.28,8.65s0-.03,0-.06c2.36,0,4.71,0,7.07,0,.7,0,.71,0,.65-.68-.04-.36,.05-.51,.44-.51,1.69,.02,3.38,.02,5.07,.02,.75,0,.76,0,.72,.75-.01,.33,.12,.46,.45,.46,.81-.02,1.61-.03,2.42,0,.4,.02,.48-.14,.48-.5-.02-1.24-.02-2.49,0-3.73,.01-.33-.07-.45-.42-.44-2.66,.07-5.32,.14-7.98,.17-1.22,.01-2.44-.05-3.66-.1-.39-.01-.46,.17-.32,.48,.15,.34,.12,.5-.31,.6-1.31,.29-2.62,.63-3.92,.95-.64,.16-.62,.15-.83-.5-.24-.75-.66-1.42-1.32-1.89-.95-.71-2.06-.68-3.11-.46-1.16,.23-2.06,.92-2.62,2.05-.48,.98-.46,2-.65,3-.05,.3,.15,.38,.41,.38,2.49,0,4.97,0,7.45,0Zm0,1.5s0,0,0,.01h-1.88c-.63,0-1.26,0-1.89,0-1.2,0-2.41-.02-3.62,0-.14,0-.38,.19-.38,.26,.12,1.07,.33,2.09,1.04,2.95,.99,1.21,2.69,1.62,4.15,1.18,1.35-.41,2.18-1.37,2.46-2.77,.09-.35,.27-.48,.67-.41,1.35,.22,2.71,.42,4.06,.57,.38,.05,.46,.17,.36,.49-.22,.6-.45,1.19-.67,1.78-.04,.12-.05,.24-.07,.36,.09,.01,.18,.05,.26,.05,1.56-.05,3.13-.16,4.69-.14,2.56,0,5.12,.09,7.68,.16,.27,0,.48,.02,.46-.35-.02-1.26-.02-2.52,0-3.77,0-.3-.12-.39-.41-.39-.84,.02-1.68,.02-2.51,0-.35-.01-.48,.12-.44,.45,.02,.15-.02,.29,.02,.43,.12,.5-.14,.6-.55,.6-1.56-.01-3.13,0-4.69-.02-1,0-1-.01-.98-1.01,0-.31-.08-.45-.41-.45-2.45,0-4.9,.01-7.35,.02Zm-32.95-6.61h0c0,1.55,.02,3.1,0,4.64,0,.39,.12,.5,.51,.48,.97-.04,1.94,0,2.9-.03,.36,0,.77-.03,1.07-.19,1.51-.84,3.18-1.11,4.81-1.52,1.25-.32,2.49-.65,3.74-.95,.37-.09,.45-.31,.45-.63,0-1.02-.58-1.79-1.57-2.19-.86-.34-1.72-.3-2.57-.23-1.28,.1-2.28,.7-2.73,1.95-.15,.41-.35,.45-.72,.37-1.22-.26-2.42-.51-3.65-.72-.4-.06-.5-.16-.38-.54,.56-1.64,1.48-2.98,3.03-3.84,.09-.05,.14-.15,.2-.23-.09-.06-.17-.15-.25-.18-1.48-.39-2.96-.76-4.42-1.16-.34-.09-.43,0-.43,.34,.02,1.52,0,3.06,.01,4.59Zm71.82,10.2s-.01,0-.01,0c0,.95-.02,1.89,.01,2.84,0,.13,.18,.36,.3,.38,1.22,.24,2.44,.43,3.65,.68,1.07,.22,2.12,.49,3.19,.73,.1,.02,.21-.01,.32-.02-.01-.11,.02-.22-.02-.31-.16-.32-.33-.62-.5-.93-.7-1.34-1.34-2.73-2.1-4.05-.99-1.69-2.45-2.64-4.51-2.44-.27,.04-.35,.13-.34,.4,.02,.91,.01,1.81,.01,2.71Zm-.01-8.73s.01,0,.02,0c0,.72,.03,1.46-.02,2.18-.02,.4,.08,.51,.46,.5,1.11-.03,2.23,.04,3.33-.05,.74-.06,1.5-.22,2.18-.53,1.38-.63,1.75-2.45,.86-3.67-.55-.76-1.39-1.01-2.23-1.06-1.43-.09-2.86-.03-4.3-.03-.24,0-.33,.09-.32,.35,.01,.78,0,1.55,0,2.32Zm-60.01,5.15h0c-.36,0-.71-.02-1.06,0-1.3,.1-2.59,.27-3.7,1.04-.89,.61-1,1.54-.81,2.5,.16,.83,.71,1.34,1.53,1.55,1.39,.37,2.69,.06,3.88-.64,.49-.28,.92-.74,1.24-1.22,.6-.87,.58-1.91,.57-2.93,0-.11-.22-.29-.35-.29-.44-.04-.87-.01-1.3,0Zm46.7-1.51c.29-.08,.74,.16,.85-.37,.11-.52,.19-1.05,.3-1.56,.22-1.01,.44-2.01,.7-2.99,.09-.39-.03-.46-.38-.42-.92,.12-1.85,.24-2.79,.28-.49,.02-.56,.16-.46,.6,.28,1.19,.57,2.38,.8,3.57,.16,.88,.13,.88,.98,.89Zm36.24,2.51c-.07-.19-.12-.3-.14-.43-.08-.5-.35-.67-.84-.6-.4,.05-.84,0-1.26,.02-.93,0-.92,0-.92-.91,0-.09-.04-.19-.04-.29-.02-.27,.11-.39,.37-.38,.5,.01,1,0,1.5,.03,.47,.01,.53-.04,.38-.48-.39-1.26-.77-2.52-1.15-3.79-.05-.14-.15-.28-.25-.5-.76,2.49-1.49,4.87-2.24,7.32,1.53,0,3.03,0,4.6,0Zm-76.27,2.02h-.01c0,.92-.01,1.84,.01,2.76,0,.12,.18,.33,.26,.31,.94-.12,1.87-.26,2.8-.41,.24-.03,.32-.15,.16-.36-1-1.37-1.49-2.93-1.65-4.59-.07-.73-.07-.73-.81-.73-.13,0-.26,.01-.38,0-.3-.05-.4,.06-.39,.37,.02,.89,.01,1.77,.01,2.65Zm.07-6.75s-.05,0-.06,.01c0,.44,0,.9,0,1.35q0,.81,.79,.84c.1,0,.19,0,.28,.02,.27,.04,.38-.1,.41-.35,.04-.5,.09-1.02,.16-1.53,.17-1.27,.5-2.48,1.18-3.57,.19-.29,.12-.4-.19-.45-.89-.14-1.77-.28-2.66-.41-.3-.05-.44,.04-.3,.37,.08,.17,.14,.36,.16,.54,.09,1.06,.16,2.11,.24,3.16Zm49.98-1.02h0c0-.91-.01-1.83,.01-2.74,0-.33-.1-.45-.43-.38-.37,.07-.77,.1-1.13,.2-.13,.04-.29,.25-.29,.39-.01,1.68,0,3.38,0,5.07,0,.67,0,.67,.69,.69,.23,0,.45-.02,.68,0,.35,.04,.48-.1,.47-.45-.03-.92,0-1.84,0-2.76Zm.02,7.86h-.02c0-.9-.01-1.8,0-2.7,.01-.34-.1-.47-.45-.44-.3,.04-.61,.03-.92,0-.37-.04-.49,.08-.48,.48,.01,1.71,0,3.41,0,5.11,0,.29,.1,.42,.38,.45,.37,.04,.73,.09,1.09,.15,.29,.05,.41-.04,.4-.36-.02-.9,0-1.8,0-2.7Zm-5.05-.29h.02c0-.82,0-1.64-.01-2.46-.01-.14-.16-.34-.27-.36-.32-.05-.64-.03-.97,0-.08,0-.19,.12-.21,.21-.36,1.55-.71,3.1-1.07,4.65-.09,.37,.07,.43,.4,.45,.56,.03,1.12,.09,1.67,.21,.36,.08,.43-.02,.43-.33,0-.8,0-1.59,0-2.37Zm-10.03-.53h-.01c0,.65,0,1.32,0,1.98,0,.28,.1,.41,.39,.41,.53,.01,1.05,.06,1.59,.11,.48,.04,.5,0,.4-.46-.27-1.11-.54-2.21-.76-3.33-.18-.91-.2-.96-1.11-1-.01,0-.02,0-.04,0-.35-.07-.46,.07-.46,.41,.03,.64,.02,1.26,.01,1.89Zm10.03-7.82s-.1-.03-.15-.04c-.06,.24-.14,.47-.19,.71-.19,.94-.39,1.88-.58,2.82-.04,.14-.03,.45-.01,.45,.24,.05,.51,.07,.75,.04,.07-.02,.14-.27,.15-.41,.02-.77,.02-1.56,.02-2.35,.01-.41,0-.82,0-1.23Zm-9.87,.1c-.07,0-.14,.01-.21,.02,0,.22,0,.42,0,.64,.01,.87,.08,1.74,.04,2.6-.02,.47,.04,.7,.59,.69,.4-.01,.43-.1,.34-.45-.14-.52-.25-1.06-.36-1.59-.13-.64-.27-1.28-.39-1.91Zm4.76,7.26s.1,.01,.14,.01c.12-.54,.25-1.08,.33-1.63,.05-.31-.22-.26-.4-.22-.15,.04-.41,.16-.4,.22,.08,.55,.2,1.08,.32,1.62Zm-46.06,5.25s.05,.09,.07,.13c.26-.08,.52-.19,.79-.23,.58-.11,.71-.37,.4-.95-.42,.36-.84,.7-1.26,1.06Z"/><path class="cls-2" d="M60.84,72.34c2.58,.18,5.8,.31,9,.66,2.65,.29,5.28,.81,7.9,1.32,1.54,.3,3.06,.73,4.56,1.2,2.16,.66,4.3,1.4,6.45,2.14,2.68,.93,5.25,2.17,7.74,3.51,1.22,.65,2.4,1.36,3.6,2.04,.26,.14,.31,.32,.12,.55-.02,.03-.04,.05-.06,.08-.2,.28-.36,.76-.62,.82-.24,.06-.57-.33-.88-.5-1.83-.98-3.64-2.02-5.52-2.93-1.71-.84-3.44-1.62-5.22-2.29-2.01-.75-4.07-1.41-6.14-2-1.92-.54-3.86-1.01-5.82-1.39-2.33-.43-4.69-.75-7.05-1.08-3.98-.55-8.01-.6-12.02-.43-2.74,.11-5.48,.44-8.22,.72-1.38,.14-2.74,.37-4.1,.65-1.77,.36-3.53,.75-5.27,1.21-1.9,.52-3.8,1.07-5.66,1.75-2.1,.78-4.18,1.63-6.21,2.57-1.99,.93-3.9,2.02-5.85,3.04-.34,.19-.65,.41-.98,.63-.23,.16-.39,.17-.51-.15-.08-.21-.19-.41-.33-.58-.3-.32-.16-.5,.14-.68,1.59-.9,3.14-1.88,4.78-2.68,1.87-.93,3.79-1.79,5.76-2.54,2.42-.93,4.88-1.78,7.37-2.55,1.7-.53,3.46-.91,5.21-1.25,2.35-.46,4.71-.89,7.09-1.19,1.91-.25,3.85-.33,5.77-.45,1.44-.09,2.87-.12,4.94-.21Z"/><path class="cls-2" d="M99.61,36.89c.22,.35,.46,.67,.61,1.01,.06,.13-.04,.43-.15,.5-2.27,1.24-4.53,2.49-6.83,3.66-1.31,.67-2.67,1.25-4.06,1.77-1.84,.7-3.72,1.33-5.59,1.92-1.54,.5-3.1,.94-4.69,1.3-1.93,.43-3.88,.81-5.82,1.11-2.02,.32-4.05,.65-6.09,.77-3.12,.17-6.24,.24-9.37,.25-1.76,0-3.52-.11-5.27-.29-2.46-.27-4.92-.59-7.36-1.02-2.07-.36-4.13-.84-6.17-1.37-1.77-.45-3.53-.96-5.25-1.59-2.12-.77-4.2-1.67-6.28-2.55-2.36-.99-4.61-2.22-6.8-3.55-.3-.19-.74-.33-.83-.59-.08-.23,.29-.58,.39-.89,.16-.48,.35-.36,.7-.16,1.74,1,3.46,2.04,5.26,2.91,2.2,1.06,4.43,2.08,6.71,2.91,2.49,.89,5.04,1.64,7.6,2.29,2.38,.61,4.79,1.08,7.22,1.48,1.97,.33,3.96,.48,5.95,.68,3.49,.34,6.99,.34,10.49,.15,2.51-.13,5-.44,7.49-.72,1.33-.14,2.66-.36,3.96-.63,1.74-.36,3.48-.79,5.2-1.23,1.37-.35,2.74-.73,4.08-1.17,1.37-.45,2.72-.97,4.06-1.51,1.3-.53,2.62-1.06,3.89-1.68,1.65-.79,3.27-1.67,4.9-2.55,.69-.36,1.34-.79,2.04-1.21Z"/><path class="cls-2" d="M92.12,27.2c.27,.26,.59,.55,.87,.88,.06,.08,.01,.36-.08,.44-2.63,2.62-5.49,4.97-8.68,6.87-1.94,1.17-3.99,2.2-6.07,3.12-1.86,.82-3.81,1.45-5.74,2.08-1.15,.37-2.35,.61-3.56,.85-3.98,.8-8.02,1.07-12.07,.75-2.13-.17-4.24-.54-6.35-.91-1.32-.22-2.62-.55-3.89-.94-1.38-.43-2.72-.95-4.06-1.48-1.27-.52-2.54-1.06-3.76-1.69-1.15-.58-2.3-1.22-3.37-1.94-1.6-1.08-3.18-2.18-4.69-3.38-1.29-1.03-2.46-2.21-3.7-3.31-.2-.18-.22-.33,0-.52,.27-.24,.54-.49,.84-.77,8.89,8.73,19.53,13.47,32.11,13.48,12.56,0,23.18-4.72,32.2-13.52Z"/><path class="cls-2" d="M59.93,80.93c-2.47-.08-5.12,.14-7.74,.64-1.71,.33-3.42,.73-5.1,1.25-1.89,.6-3.76,1.29-5.59,2.05-1.22,.5-2.41,1.12-3.55,1.82-1.74,1.08-3.49,2.18-5.13,3.42-1.65,1.27-3.16,2.73-4.72,4.12-.24,.21-.36,.28-.55-.03-.07-.13-.21-.23-.33-.34-.48-.45-.48-.44-.02-.92,2.34-2.35,4.93-4.41,7.71-6.22,1.98-1.29,4.02-2.44,6.21-3.34,1.42-.59,2.88-1.13,4.34-1.68,2.21-.83,4.52-1.4,6.84-1.73,2.42-.34,4.87-.5,7.32-.62,2.68-.14,5.35,.17,7.99,.6,2.33,.38,4.62,.98,6.87,1.71,2.49,.82,4.9,1.85,7.21,3.07,2.36,1.24,4.62,2.67,6.69,4.36,1.57,1.28,3.02,2.64,4.53,3.97,.25,.22,.21,.51-.03,.58-.4,.1-.41,1.12-1.01,.53-2.1-2.08-4.34-3.99-6.8-5.61-1.45-.95-2.92-1.88-4.47-2.66-1.69-.85-3.46-1.57-5.23-2.27-1.25-.49-2.54-.93-3.83-1.27-1.45-.38-2.91-.68-4.39-.88-1.89-.26-3.81-.4-5.71-.56-.43-.04-.87,0-1.51,0Z"/><path class="cls-2" d="M82.33,101.94c-.49-.7-.94-1.37-1.41-2-2.15-2.88-4.73-5.28-7.82-7.15-1.79-1.1-3.67-1.99-5.67-2.57-3.31-.98-6.69-1.43-10.16-.98-1.86,.25-3.7,.56-5.45,1.22-1.58,.6-3.14,1.31-4.62,2.13-2.81,1.57-5.19,3.68-7.2,6.18-.76,.93-1.41,1.94-2.11,2.92-.02,0-.02,.04-.03,.04-.54,.38-.77-.3-1.2-.37-.06-.01-.16-.41-.09-.51,.99-1.34,1.93-2.72,3.04-3.97,1.88-2.15,4.07-3.96,6.53-5.44,1.56-.93,3.18-1.76,4.89-2.34,1.52-.51,3.1-.84,4.67-1.16,2.41-.51,4.84-.46,7.28-.2,2.15,.22,4.23,.75,6.26,1.5,3.88,1.44,7.23,3.66,10.14,6.59,1.51,1.51,2.78,3.19,3.97,4.95,.19,.28,.24,.46-.16,.6-.29,.11-.54,.34-.86,.57Z"/><path class="cls-2" d="M82.31,19.74c.36,.21,.7,.37,.99,.59,.09,.06,.13,.35,.06,.45-.42,.65-.86,1.28-1.3,1.9-1.16,1.6-2.48,3.05-3.94,4.36-1.45,1.29-3.01,2.48-4.72,3.41-1.15,.62-2.31,1.2-3.5,1.71-1.74,.74-3.53,1.32-5.42,1.53-1.81,.19-3.62,.37-5.43,.37-1.91,0-3.81-.31-5.68-.8-1.87-.49-3.68-1.14-5.4-2.01-2.48-1.25-4.71-2.86-6.74-4.77-1.73-1.63-3.2-3.46-4.51-5.43-.37-.55-.36-.55,.25-.91,.71-.4,.69-.38,1.13,.29,1.59,2.39,3.48,4.48,5.71,6.3,1.4,1.14,2.88,2.14,4.48,2.97,1.48,.77,3.01,1.46,4.64,1.83,1.64,.37,3.3,.74,4.97,.94,2.17,.27,4.35,.13,6.49-.35,1.21-.27,2.42-.52,3.6-.9,.96-.29,1.91-.68,2.81-1.12,2.22-1.07,4.27-2.43,6.11-4.07,1.95-1.72,3.64-3.67,5.04-5.87,.1-.16,.23-.3,.35-.43Z"/><path class="cls-2" d="M59.7,25.31c-2.96-.12-5.69-1.09-8.08-3.04-1.45-1.19-2.59-2.63-3.5-4.24-.35-.63-.59-1.31-.87-1.98-.11-.25-.05-.4,.25-.44,.2-.02,.41-.08,.58-.17,.4-.19,.6-.04,.72,.34,.44,1.38,1.2,2.59,2.14,3.68,1.8,2.1,4,3.54,6.77,4.04,4.64,.85,8.39-.69,11.43-4.22,.94-1.09,1.61-2.34,2.09-3.7,.03-.1,.25-.2,.36-.19,.35,.07,.68,.16,1.01,.28,.07,.02,.15,.22,.13,.29-.7,1.84-1.65,3.53-3,4.99-1.48,1.6-3.24,2.78-5.26,3.55-1.49,.56-3.04,.8-4.74,.82Z"/><path class="cls-2" d="M59.89,96.25c2.47,.08,4.75,.73,6.81,1.98,2.2,1.32,3.93,3.14,5.12,5.44,.33,.66,.62,1.33,.91,2,.03,.08-.09,.23-.15,.32-.01,.02-.06,.02-.09,.02-1.12,.3-1.09,.29-1.58-.8-1.2-2.64-3.05-4.67-5.66-6.02-2.07-1.07-4.25-1.5-6.54-1.25-1.72,.19-3.34,.76-4.83,1.69-2.22,1.39-3.8,3.32-4.89,5.68-.15,.33-.23,.8-.49,.94-.22,.13-.64-.17-.98-.22-.3-.05-.37-.15-.26-.45,.72-1.92,1.76-3.65,3.2-5.12,1.76-1.8,3.81-3.14,6.31-3.67,1.03-.22,2.08-.37,3.11-.56Z"/><path class="cls-2" d="M71.99,12.72c.24-.93,.44-1.7,.64-2.48,.24-.93,.49-1.87,.74-2.8,.4-1.53,.81-3.06,1.22-4.6,.05-.16,.12-.34,.12-.51,0-.43,.23-.45,.54-.37,.03,0,.05,.02,.09,.04,.3,.12,.73,.17,.87,.39,.12,.19-.09,.6-.17,.9-.34,1.27-.69,2.54-1.02,3.81-.39,1.52-.78,3.05-1.16,4.58-.1,.4-.2,.81-.29,1.21,0,.03,0,.05-.02,.06-.13,.08-.35,.25-.4,.21-.34-.27-1,.05-1.15-.43Z"/><path class="cls-2" d="M8.48,29.85c.43,.26,.83,.47,1.2,.7,2.38,1.39,4.75,2.79,7.14,4.2,.33,.2,.67,.36,1,.57,.08,.07,.16,.28,.12,.38-.06,.22-.22,.41-.33,.61-.23,.4-.39,.47-.87,.18-2.11-1.31-4.29-2.54-6.44-3.79-.79-.46-1.58-.92-2.37-1.38-.1-.07-.19-.3-.15-.4,.12-.31,.31-.59,.49-.88,.05-.09,.15-.14,.21-.19Z"/><path class="cls-2" d="M107.64,48.74c-.32-.01-.65-.56-.65-1.16,0-.13,.2-.35,.35-.4,.44-.15,.9-.24,1.35-.36,1.22-.33,2.44-.67,3.66-1,1.43-.4,2.85-.76,4.27-1.14,.33-.09,.72-.31,.95-.2,.2,.1,.22,.57,.34,.87,.18,.44,.12,.55-.35,.67-1.26,.34-2.51,.7-3.77,1.04-1.14,.31-2.31,.59-3.44,.9-.82,.22-1.62,.48-2.44,.72-.1,.04-.22,.05-.28,.07Z"/><path class="cls-2" d="M43.67,119.34c.52-2.05,1.01-4.05,1.52-6.03,.3-1.16,.64-2.31,.96-3.48,.1-.36,.19-.7,.29-1.06,.02-.08,.05-.22,.07-.21,.4,.04,.8,.06,1.19,.17,.1,.03,.2,.32,.18,.46-.1,.54-.25,1.07-.39,1.59-.42,1.63-.84,3.26-1.28,4.89-.3,1.13-.6,2.26-.93,3.38-.22,.73-.24,.72-1,.48-.2-.07-.4-.13-.6-.19Z"/><path class="cls-2" d="M102.99,103.4c-.17,.09-.35,.14-.47,.26-.65,.62-.65,.64-1.28,0-1.74-1.75-3.47-3.52-5.22-5.29-.58-.59-1.16-1.19-1.76-1.77-.22-.2-.26-.36-.01-.55,.08-.07,.17-.14,.25-.21,.6-.58,.61-.58,1.21,.05,2.3,2.33,4.61,4.67,6.91,7.01,.1,.1,.17,.22,.37,.5Z"/><path class="cls-2" d="M107.48,72.85c.18,.02,.23,.02,.27,.04,1.09,.3,2.19,.62,3.29,.92,.85,.24,1.7,.45,2.55,.69,.85,.23,1.69,.48,2.54,.72,.48,.13,.96,.25,1.44,.36,.46,.11,.53,.24,.35,.68-.06,.16-.14,.34-.14,.5,0,.49-.27,.47-.6,.37-1.18-.34-2.35-.68-3.52-1.01-1.19-.33-2.37-.67-3.56-.99-.89-.25-1.78-.47-2.67-.69-.46-.11-.52-.22-.34-.67,.07-.2,.08-.42,.15-.6,.06-.14,.19-.25,.25-.33Z"/><path class="cls-2" d="M85.07,103.32c.13,.15,.25,.27,.33,.42,1.37,2.41,2.72,4.82,4.08,7.23,.35,.6,.69,1.19,1.04,1.79,.14,.24,.14,.41-.16,.51-.16,.06-.31,.17-.46,.26-.59,.35-.57,.34-.89-.25-1.05-1.88-2.1-3.74-3.16-5.61-.64-1.13-1.31-2.24-1.95-3.37-.04-.08-.04-.27,.01-.3,.36-.23,.73-.43,1.15-.68Z"/><path class="cls-2" d="M76.31,119.22s-.08,.15-.16,.18c-.32,.12-.64,.22-.97,.29-.23,.05-.36-.03-.43-.31-.33-1.33-.68-2.64-1.03-3.96-.3-1.16-.58-2.33-.89-3.49-.24-.9-.49-1.8-.76-2.69-.1-.31-.05-.48,.3-.55,.27-.02,.52-.17,.79-.19,.14,0,.36,.13,.39,.25,.5,1.85,.96,3.7,1.44,5.56,.31,1.16,.63,2.32,.95,3.49,.12,.45,.24,.9,.37,1.42Z"/><path class="cls-2" d="M12.98,74.22c-.12,.08-.23,.21-.38,.24-1.66,.48-3.33,.94-5.01,1.4-1.64,.44-3.27,.89-4.93,1.34-.07,.01-.2,.06-.23,.02-.12-.15-.32-.35-.3-.5,.06-.35-.66-.84,.13-1.06,1.05-.29,2.11-.56,3.17-.85,1.49-.41,3-.84,4.5-1.26,.78-.22,1.57-.44,2.36-.64,.09-.03,.29,.04,.32,.11,.13,.35,.23,.73,.36,1.19Z"/><path class="cls-2" d="M29.3,8.57c.34-.23,.67-.47,1.03-.65,.09-.04,.35,.1,.43,.23,.83,1.42,1.63,2.87,2.45,4.31,.91,1.57,1.82,3.16,2.72,4.74,.14,.24,.17,.49-.18,.63-.33,.14-.69,.47-.97,.4-.23-.06-.36-.55-.53-.86-1.65-2.88-3.29-5.76-4.93-8.64-.03-.04-.02-.09-.03-.16Z"/><path class="cls-2" d="M43.59,2.33c.4-.13,.77-.26,1.13-.37,.24-.08,.36,.01,.43,.28,.48,1.88,1.01,3.75,1.49,5.62,.32,1.21,.62,2.43,.92,3.64,.08,.33,.19,.64,.26,.98,.06,.3-.01,.51-.38,.48-.05,0-.1,0-.14,0-.26,.05-.68,.23-.75,.13-.21-.25-.29-.61-.38-.94-.34-1.22-.67-2.45-.99-3.67-.3-1.15-.58-2.3-.88-3.45-.24-.89-.47-1.79-.72-2.71Z"/><path class="cls-2" d="M29.29,113.11c1.39-2.47,2.77-4.88,4.13-7.29,.42-.73,.8-1.47,1.23-2.18,.06-.11,.32-.23,.42-.19,.31,.1,.61,.28,.87,.48,.09,.08,.09,.38,.02,.52-1.04,1.84-2.08,3.67-3.13,5.5-.68,1.19-1.34,2.38-2.01,3.57-.15,.27-.29,.39-.59,.13-.26-.22-.6-.35-.94-.55Z"/><path class="cls-2" d="M24.93,26.49c-1.62-1.65-3.12-3.16-4.59-4.68-1.02-1.03-2.03-2.06-3.05-3.09-.24-.23-.32-.42,.03-.64,.3-.18,.56-.62,.83-.61,.26,0,.5,.44,.74,.69,2.25,2.27,4.49,4.56,6.75,6.83,.25,.26,.28,.4-.01,.65-.26,.23-.45,.54-.69,.84Z"/><path class="cls-2" d="M18.12,104.31c-.12-.09-.22-.15-.29-.22-.19-.17-.34-.4-.54-.53-.28-.19-.23-.36-.04-.55,1.21-1.23,2.44-2.47,3.66-3.7,1.22-1.24,2.44-2.48,3.63-3.74,.25-.27,.42-.3,.65,0,.13,.16,.24,.35,.42,.45,.45,.27,.26,.45-.02,.72-1.09,1.06-2.16,2.16-3.22,3.24-1.19,1.21-2.37,2.41-3.55,3.61-.16,.16-.29,.34-.45,.5-.07,.08-.16,.14-.25,.22Z"/><path class="cls-2" d="M89.39,7.78c.42,.27,.78,.5,1.15,.76,.04,.02,0,.21-.06,.3-.82,1.46-1.65,2.9-2.47,4.36-.91,1.6-1.81,3.2-2.72,4.8-.14,.27-.28,.32-.52,.17-.26-.15-.54-.24-.75-.42-.1-.09-.14-.39-.08-.51,1.08-1.92,2.2-3.82,3.27-5.72,.65-1.15,1.28-2.3,1.93-3.44,.05-.1,.14-.19,.24-.3Z"/><path class="cls-2" d="M18.06,86.16c-.1,.07-.17,.17-.27,.22-1.67,.98-3.35,1.95-5.03,2.93-1.34,.8-2.66,1.6-4,2.39-.29,.18-.53,.1-.52-.2,0-.41-.97-.67-.23-1.14,1.2-.76,2.46-1.45,3.67-2.17,1.77-1.05,3.54-2.1,5.3-3.14,.2-.12,.36-.17,.49,.12,.11,.26,.3,.48,.44,.72,.05,.07,.07,.14,.13,.27Z"/><path class="cls-2" d="M112.24,31.11c-1,.59-1.97,1.16-2.93,1.73-1.89,1.12-3.78,2.24-5.68,3.36-.22,.13-.46,.28-.69,.42-.01,0-.03,.02-.05,.02-.64,.05-.52-.67-.86-.93-.04-.04,.04-.37,.15-.44,1.98-1.19,3.98-2.35,5.97-3.52,1.02-.6,2.02-1.23,3.04-1.82,.1-.06,.37,0,.44,.09,.23,.33,.41,.71,.62,1.09Z"/><path class="cls-2" d="M112.24,90.58c-.24,.4-.43,.76-.66,1.11-.03,.05-.25,.06-.34,0-2.16-1.27-4.32-2.56-6.47-3.84-.85-.5-1.68-1.01-2.54-1.49-.29-.16-.29-.32-.13-.57,.16-.23,.26-.5,.44-.69,.09-.09,.36-.15,.46-.09,2.08,1.23,4.16,2.47,6.23,3.71,.94,.55,1.87,1.08,2.8,1.62,.08,.05,.14,.15,.21,.23Z"/><path class="cls-2" d="M102.89,18.29c-.09,.15-.15,.26-.24,.34-2.42,2.49-4.86,4.97-7.28,7.45-.24,.24-.42,.27-.62-.03-.02-.03-.04-.05-.05-.07-.7-.74-.69-.73,.01-1.42,1.42-1.44,2.83-2.91,4.24-4.36,.88-.9,1.77-1.8,2.66-2.7,.07-.06,.21-.15,.25-.12,.35,.28,.68,.59,1.04,.9Z"/><path class="cls-2" d="M59.02,5.7c0-1.76,0-3.51,0-5.27,0-.04-.02-.06,0-.09,.27-.66,.85-.12,1.26-.3,.22-.09,.33,.12,.28,.41-.06,.31-.01,.64-.01,.95,0,3.19,.01,6.38,.02,9.57,0,.32-.11,.44-.43,.4-.2-.03-.42-.06-.62-.01-.38,.07-.48-.08-.48-.44,.01-1.75,0-3.49,0-5.23,0,0-.02,0-.02,0Z"/><path class="cls-2" d="M60.62,115.97c0,1.78,0,3.56,0,5.32,0,.11-.19,.3-.31,.32-.3,.04-.62,.05-.91,0-.12-.03-.32-.23-.32-.35-.02-3.53,0-7.06,0-10.6,0-.32,.12-.45,.44-.37,.09,.02,.19,.01,.28,.02,.79,0,.78,0,.79,.84,0,1.61,0,3.23,0,4.83,.02,0,.02,0,.03,0Z"/><path class="cls-2" d="M10.45,95.04c.91-.64,1.81-1.29,2.71-1.92,.55-.4,1.09-.79,1.62-1.2,.25-.18,.4-.27,.53,.11,.06,.21,.19,.42,.35,.56,.32,.29,.27,.44-.08,.68-1.36,.95-2.68,1.93-4.01,2.91-.23,.16-.35,.08-.47-.09-.21-.33-.41-.65-.66-1.04Z"/><path class="cls-2" d="M42.02,112.96c-.27,.74-.51,1.39-.75,2.06-.33,.91-.66,1.83-.98,2.77-.11,.33-.27,.45-.6,.33-.28-.11-.56-.18-.8-.31-.09-.05-.15-.27-.12-.37,.57-1.6,1.16-3.19,1.72-4.79,.11-.3,.26-.34,.51-.25,.28,.1,.57,.19,.84,.32,.09,.04,.13,.19,.17,.25Z"/><path class="cls-2" d="M70.07,6.79c-.46-.1-.82-.16-1.17-.26-.06-.02-.14-.2-.12-.31,.24-1.27,.48-2.54,.72-3.81,.07-.38,.09-.77,.14-1.15,0-.04,0-.09,0-.14,.08-.39,.42-.33,.61-.2,.3,.2,1.03-.2,.93,.49-.24,1.7-.57,3.38-.86,5.06-.02,.14-.18,.25-.25,.33Z"/><path class="cls-2" d="M11.09,37.03c-.21,.42-.39,.83-.61,1.19-.03,.06-.24,.08-.34,.03-1.51-.72-3.02-1.46-4.53-2.18-.25-.12-.35-.26-.17-.52,.13-.2,.3-.4,.34-.63,.09-.46,.3-.37,.61-.22,1.46,.69,2.92,1.37,4.38,2.06,.12,.05,.21,.17,.31,.27Z"/><path class="cls-2" d="M116.03,82.28c-1.7-.63-3.32-1.25-4.95-1.83-.39-.14-.43-.28-.22-.61,.13-.22,.14-.49,.27-.72,.07-.1,.29-.22,.38-.18,.8,.28,1.6,.61,2.42,.91,.76,.28,1.54,.54,2.29,.84,.13,.04,.28,.28,.25,.38-.11,.41-.28,.79-.44,1.21Z"/><path class="cls-2" d="M109.51,95.04c-.24,.35-.45,.71-.69,1.03-.05,.08-.28,.12-.35,.06-1.48-1.05-2.94-2.12-4.41-3.18-.01,0-.01-.03-.02-.06,.23-.33,.45-.69,.7-1.01,.05-.07,.28-.11,.35-.07,1.47,1.05,2.93,2.12,4.4,3.18,.02,.02,.01,.04,.03,.04Z"/><path class="cls-2" d="M33.86,6.09c.38-.21,.76-.43,1.15-.6,.07-.03,.32,.1,.37,.22,.57,1.23,1.13,2.47,1.69,3.7,.14,.31,.3,.62,.45,.94,.1,.24,.14,.41-.2,.51-.32,.09-.62,.27-1.04,.47-.79-1.72-1.6-3.45-2.4-5.23Z"/><path class="cls-2" d="M11.21,84.77c-.12,.04-.25,.09-.36,.14-1.52,.72-3.04,1.44-4.56,2.16-.21,.09-.34,.12-.44-.16-.1-.28-.26-.54-.41-.81-.14-.25-.05-.39,.18-.5,1.42-.66,2.85-1.31,4.27-1.98,.61-.28,.6-.29,.86,.33,.09,.19,.19,.37,.29,.56,0,.04,.01,.07,.02,.09,.05,.05,.1,.1,.15,.15Z"/><path class="cls-2" d="M36.3,110.36c.44,.19,.78,.3,1.09,.48,.11,.05,.2,.32,.15,.44-.52,1.19-1.07,2.35-1.61,3.53-.16,.35-.33,.73-.49,1.09-.13,.29-.28,.39-.59,.17-.29-.19-.61-.32-.97-.49,.82-1.76,1.62-3.52,2.41-5.22Z"/><path class="cls-2" d="M9.21,80.24c-.12,.08-.23,.19-.36,.24-1.54,.59-3.07,1.17-4.62,1.75-.11,.04-.35-.06-.42-.18-.15-.27-.24-.58-.34-.88-.08-.23,0-.37,.27-.45,1.08-.37,2.14-.75,3.2-1.15,.52-.19,1.04-.41,1.55-.6,.08-.03,.26,0,.28,.06,.15,.36,.27,.74,.44,1.21Z"/><path class="cls-2" d="M106.32,22.35c-.04,.06-.09,.14-.16,.2-1.29,1.11-2.59,2.22-3.89,3.31-.08,.07-.32,.14-.36,.08-.25-.26-.49-.54-.67-.86-.07-.1,0-.36,.09-.45,1.27-1.11,2.55-2.2,3.84-3.29,.09-.07,.32-.1,.38-.05,.26,.28,.49,.59,.72,.89,.03,.04,.03,.09,.06,.16Z"/><path class="cls-2" d="M9.19,41.48c-.16,.46-.27,.82-.41,1.15-.03,.07-.23,.12-.32,.09-.96-.34-1.92-.71-2.87-1.06-.61-.23-1.22-.46-1.84-.69-.04,0-.11,0-.14-.02-.47-.48,.15-.83,.17-1.25,.01-.22,.17-.34,.46-.22,1.52,.59,3.06,1.15,4.58,1.73,.14,.05,.25,.19,.35,.27Z"/><path class="cls-2" d="M24.54,102.46c.3,.3,.54,.56,.82,.76,.26,.19,.25,.31,.06,.54-1.07,1.3-2.13,2.6-3.21,3.91-.16,.22-.33,.25-.52,.05-.01-.02-.04-.05-.06-.07-.25-.26-.67-.5-.69-.78-.02-.25,.37-.55,.59-.83,.9-1.11,1.81-2.22,2.71-3.32,.08-.08,.18-.16,.28-.25Z"/><path class="cls-2" d="M116.02,39.33c.15,.39,.32,.76,.42,1.14,.02,.12-.09,.39-.2,.43-1.45,.55-2.91,1.09-4.37,1.6-.65,.23-.66,.22-.9-.49-.04-.09-.09-.17-.14-.25-.18-.3-.15-.47,.22-.6,1.64-.59,3.27-1.21,4.97-1.83Z"/><path class="cls-2" d="M71.24,120.26c-.14,.68-.73,.35-1.1,.5-.23,.1-.41,0-.46-.32-.26-1.63-.54-3.26-.84-4.9-.07-.39,.04-.5,.4-.48,.1,.01,.2,0,.28-.04,.71-.28,.78-.27,.91,.6,.21,1.47,.5,2.94,.77,4.41,0,.08,.02,.16,.04,.22Z"/><path class="cls-2" d="M113.97,56c-.05-.72-.05-.7,.65-.77,1.53-.13,3.06-.25,4.58-.4,.31-.02,.46,.06,.44,.37,0,.08,0,.17,0,.26q0,.92-.94,1c-1.41,.12-2.82,.24-4.23,.38-.29,.03-.47-.08-.47-.4,.01-.14-.01-.3-.02-.43Z"/><path class="cls-2" d="M90.54,106.31c.32-.24,.66-.52,1.02-.74,.08-.05,.32,.04,.38,.12,.99,1.41,2.04,2.77,2.92,4.24,.34,.56-.58,.62-.86,.97-.19,.23-.31,.01-.44-.19-.26-.44-.58-.85-.87-1.27-.71-1.03-1.41-2.06-2.15-3.13Z"/><path class="cls-2" d="M14.57,100.45c-.11-.09-.21-.16-.3-.26-.12-.14-.23-.31-.34-.45-.39-.47-.39-.46,.11-.86,1.18-1.01,2.36-2.01,3.53-3.04,.23-.2,.4-.24,.58,.03,.14,.18,.24,.41,.42,.52,.41,.28,.24,.45-.04,.69-1.23,1.05-2.47,2.13-3.7,3.2-.07,.07-.16,.1-.26,.17Z"/><path class="cls-2" d="M10.44,26.59c.23-.34,.44-.66,.65-.98,.12-.18,.23-.27,.47-.09,1.35,1.01,2.71,1.99,4.09,2.95,.28,.21,.28,.32,.06,.55-.18,.2-.27,.47-.45,.67-.08,.09-.31,.19-.39,.13-1.47-1.04-2.93-2.11-4.39-3.17-.02-.01-.02-.03-.04-.07Z"/><path class="cls-2" d="M24.48,19.23c-.48-.57-.93-1.11-1.39-1.66-.68-.81-1.34-1.64-2.03-2.44-.22-.24-.26-.41,.04-.61,.31-.21,.59-.63,.88-.63,.24,0,.47,.5,.7,.77,.92,1.09,1.81,2.17,2.72,3.25,.17,.2,.2,.34-.03,.51-.29,.23-.55,.49-.88,.8Z"/><path class="cls-2" d="M90.52,15.31c1.05-1.55,2.04-3.04,3.06-4.52,.06-.08,.26-.08,.39-.09,.05-.01,.1,.07,.15,.1,.27,.22,.72,.41,.77,.68,.04,.25-.32,.58-.52,.86-.81,1.19-1.62,2.38-2.44,3.56-.08,.1-.33,.21-.4,.16-.36-.23-.69-.51-1.01-.75Z"/><path class="cls-2" d="M79.89,3.46c.38,.13,.78,.23,1.14,.39,.08,.03,.14,.31,.09,.45-.55,1.59-1.11,3.17-1.69,4.75-.02,.09-.13,.22-.16,.21-.45-.12-.9-.27-1.34-.41-.03-.01-.04-.16-.01-.23,.62-1.7,1.25-3.39,1.88-5.07,0-.03,.04-.05,.09-.08Z"/><path class="cls-2" d="M86.07,115.45c-.06,.08-.12,.19-.2,.24-.31,.17-.61,.35-.95,.46-.09,.03-.31-.15-.37-.28-.66-1.41-1.31-2.84-1.96-4.26-.08-.18-.23-.52-.21-.52,.4-.25,.82-.44,1.25-.62,.02-.01,.16,.1,.19,.18,.65,1.41,1.29,2.82,1.93,4.23,.09,.19,.2,.37,.31,.58Z"/><path class="cls-2" d="M54.97,115.62c1,.05,.98,.08,.87,.99-.18,1.43-.3,2.88-.41,4.32-.03,.41-.1,.55-.56,.48-.97-.15-.97-.11-.9-1.03,.1-1.46,.24-2.93,.33-4.38,.03-.63,.48-.28,.67-.37Z"/><path class="cls-2" d="M97.95,107.84c-1.22-1.49-2.41-2.94-3.62-4.4,.33-.31,.62-.59,.94-.85,.08-.06,.32,0,.39,.08,1.1,1.31,2.19,2.64,3.27,3.97,.07,.08,.06,.34,0,.41-.3,.29-.64,.52-.98,.79Z"/><path class="cls-2" d="M26.22,111.11c-.27-.21-.44-.35-.63-.48-.67-.44-.66-.43-.19-1.11,.87-1.28,1.72-2.57,2.59-3.83,.06-.08,.28-.07,.43-.1,0,0,.02,.02,.04,.03q1.02,.63,.35,1.62c-.82,1.19-1.63,2.38-2.44,3.58-.05,.08-.09,.17-.14,.28Z"/><path class="cls-2" d="M86.04,6.06c-.18,.39-.3,.7-.44,.98-.59,1.3-1.2,2.59-1.79,3.89-.14,.3-.28,.34-.55,.21-.24-.13-.51-.21-.72-.37-.1-.08-.19-.34-.14-.45,.68-1.53,1.4-3.05,2.09-4.57,.15-.33,.27-.39,.56-.17,.21,.16,.49,.24,.73,.35,.1,.05,.2,.1,.25,.13Z"/><path class="cls-2" d="M119.1,50.88c-.1,.07-.23,.22-.39,.25-1.58,.3-3.17,.56-4.75,.86-.39,.07-.6,.02-.54-.44,.01-.04,0-.09-.02-.14-.09-.86-.1-.88,.78-1.05,1.18-.22,2.38-.41,3.56-.61,.16-.03,.33-.04,.48-.09,.57-.16,.64-.12,.74,.48,.04,.2,.07,.41,.13,.74Z"/><path class="cls-2" d="M41.97,8.78c-.07,.07-.15,.18-.25,.2-.39,.11-.78,.22-1.18,.25-.07,0-.18-.38-.26-.6-.51-1.41-1-2.82-1.51-4.25-.12-.33-.17-.54,.29-.57,.21-.02,.41-.18,.62-.26,.27-.1,.45-.05,.56,.27,.32,.96,.66,1.9,1,2.85,.22,.6,.44,1.21,.66,1.81,.02,.06,.03,.15,.07,.29Z"/><path class="cls-2" d="M50,.87c.05,.07,.22,.21,.25,.36,.27,1.62,.54,3.26,.82,4.89,.06,.35,0,.48-.37,.49-.2,0-.4,.08-.6,.15-.33,.1-.48-.03-.53-.36-.24-1.46-.49-2.91-.73-4.37-.17-1-.05-1.12,1.16-1.15Z"/><path class="cls-2" d="M114.56,85.87c-.17,.43-.3,.8-.48,1.15-.03,.05-.28,.06-.38,.01-1.37-.65-2.71-1.3-4.07-1.96-.27-.13-.68-.25-.72-.45-.07-.22,.26-.51,.33-.8,.14-.54,.35-.47,.78-.26,1.4,.71,2.84,1.33,4.25,2.01,.13,.06,.2,.21,.29,.3Z"/><path class="cls-2" d="M109.5,38.29c-.23-.4-.46-.78-.63-1.19-.03-.07,.18-.3,.31-.38,.38-.21,.78-.38,1.16-.56,1.08-.51,2.17-1.01,3.26-1.54,.31-.15,.51-.15,.57,.24,.02,.09,.05,.15,.06,.24q.3,.82-.49,1.19c-1.33,.64-2.67,1.26-3.99,1.9-.06,.02-.12,.05-.24,.11Z"/><path class="cls-2" d="M109.5,26.58c-1.01,.73-1.99,1.43-2.97,2.15-.46,.34-.92,.7-1.4,1.01-.09,.06-.34,.04-.42-.05-.24-.26-.44-.54-.62-.85-.04-.07,.05-.3,.15-.37,1.07-.78,2.15-1.56,3.23-2.33,.3-.22,.61-.43,.89-.66,.22-.16,.35-.15,.49,.11,.17,.32,.4,.61,.64,.98Z"/><path class="cls-2" d="M55.8,5.54c.1,.33-.05,.44-.38,.47-1.12,.05-1.1,.06-1.19-1.05-.12-1.43-.27-2.87-.38-4.31-.01-.12,.16-.31,.26-.34,.31-.07,.63-.1,.95-.1,.11,0,.29,.18,.3,.29,.16,1.67,.3,3.36,.44,5.04Z"/><path class="cls-2" d="M106.35,99.26c-.05,.1-.08,.19-.13,.27-.11,.13-.21,.28-.33,.41-.42,.51-.42,.51-.95,.07-1.18-1.01-2.39-2-3.57-3.03-.11-.08-.08-.34-.08-.52,0-.05,.12-.11,.17-.17,.21-.22,.4-.6,.63-.63,.21-.04,.48,.32,.72,.51,1.14,.96,2.26,1.93,3.41,2.9,.05,.05,.09,.12,.14,.19Z"/><path class="cls-2" d="M79.88,118.21c-.19-.52-.38-1.03-.57-1.54-.45-1.19-.88-2.37-1.29-3.56-.04-.09-.07-.26-.05-.27,.4-.19,.8-.38,1.22-.5,.07-.02,.28,.31,.35,.52,.43,1.14,.85,2.28,1.27,3.42,.13,.36,.27,.72,.38,1.09,.08,.24,.04,.41-.29,.46-.33,.06-.65,.24-1.03,.37Z"/><path class="cls-2" d="M50.03,120.78c-1.25-.07-1.29-.1-1.14-1.11,.22-1.5,.49-2.99,.74-4.47,0-.05,.02-.1,.03-.14,.14-.32,.43-.2,.56-.09,.28,.23,.99-.22,.89,.48-.2,1.44-.47,2.86-.73,4.28-.04,.22-.03,.45-.1,.67-.06,.16-.21,.3-.26,.38Z"/><path class="cls-2" d="M17.87,26.1c-1.39-1.19-2.71-2.32-4.05-3.44-.24-.2-.37-.36-.04-.59,.11-.08,.18-.22,.27-.33q.43-.55,.93-.11c1.19,1.01,2.37,2.04,3.56,3.04,.26,.21,.33,.32,.04,.57-.28,.23-.48,.56-.72,.86Z"/><path class="cls-2" d="M94.29,18.2c1.23-1.5,2.42-2.95,3.64-4.43,.33,.27,.7,.52,1.01,.84,.06,.06-.06,.4-.18,.56-.9,1.11-1.82,2.2-2.72,3.31-.58,.7-.57,.7-1.28,.14-.15-.12-.28-.25-.47-.41Z"/><path class="cls-2" d="M64.14,5.15c.1-1.41,.23-2.98,.33-4.55,.03-.26,.18-.52,.4-.36,.36,.25,1.19-.39,1.15,.5-.06,1.38-.25,2.76-.38,4.14-.02,.21-.05,.42-.05,.63q0,.58-.59,.52c-.09-.01-.18-.02-.28-.03q-.63-.01-.57-.83Z"/><path class="cls-2" d="M26.23,10.57c.02,.08,.05,.2,.11,.28,.89,1.34,1.79,2.66,2.68,4q.35,.52-.16,.88c-.69,.49-.69,.5-1.17-.17-.89-1.28-1.78-2.55-2.66-3.84-.05-.08-.1-.26-.06-.29,.36-.26,.73-.51,1.25-.85Z"/><path class="cls-2" d="M64.73,115.64q.84,0,.92,.83c.14,1.46,.27,2.91,.44,4.37,.04,.38-.09,.51-.47,.51-1.05,.04-1.05,.05-1.13-1.02-.11-1.36-.23-2.73-.34-4.09-.05-.5-.09-.69,.57-.61Z"/></g><g><g><rect class="cls-1" x="153.11" y="47.97" width="10.32" height="24.54"/><polygon class="cls-1" points="199.19 47.97 199.19 53.2 194.84 48.85 193.96 47.97 185.2 47.97 185.2 60.39 194.84 70.03 197.32 72.51 197.32 72.51 197.32 72.51 199.19 72.51 207.65 72.51 209.52 72.51 209.52 47.97 199.19 47.97"/><polygon class="cls-1" points="232.29 47.97 224.24 47.97 215.56 56.65 212.45 59.76 212.03 60.18 212.03 60.24 212.03 62.19 212.03 62.41 212.03 63.73 212.03 72.51 236.57 72.51 236.57 62.19 231.17 62.19 236.54 56.81 236.54 47.97 232.29 47.97"/><polygon class="cls-1" points="165.1 72.51 189.43 72.51 177.26 48.44 165.1 72.51"/></g><g><path class="cls-1" d="M149.25,86.18l.69,1.25-7.12,3.93-.69-1.25,7.12-3.93Z"/><path class="cls-1" d="M151.12,89.62l.79,1.07-1.95,6.84,4.53-3.33,.83,1.13-6.55,4.82-.71-.96,2-7.04-4.66,3.43-.83-1.13,6.55-4.82Z"/><path class="cls-1" d="M151.65,101.61l1.33-.13c.09,1.03,.38,1.84,1.1,2.55,.63,.62,1.32,.71,1.75,.27l.02-.02c.41-.42,.39-.87-.45-2.17-.95-1.51-1.29-2.56-.24-3.63l.02-.02c.97-1,2.48-.88,3.64,.25,.85,.83,1.27,1.74,1.4,2.79l-1.3,.24c-.14-.9-.46-1.62-1-2.14-.6-.58-1.25-.62-1.62-.23l-.02,.02c-.44,.45-.37,.91,.49,2.26,.94,1.5,1.15,2.57,.21,3.53l-.02,.02c-1.06,1.09-2.55,.9-3.78-.29-.89-.87-1.43-2-1.52-3.3Z"/><path class="cls-1" d="M162.5,102.26l2.61,1.87c1.54,1.1,1.88,2.68,.93,4.01v.02c-1.08,1.48-2.82,1.41-4.28,.36l-1.31-.94-1.52,2.13-1.16-.83,4.74-6.61Zm.05,5.24c.88,.63,1.78,.53,2.27-.16v-.02c.57-.77,.3-1.58-.57-2.2l-1.35-.97-1.71,2.38,1.35,.97Z"/><path class="cls-1" d="M169.1,106.76l5.39,2.71-.57,1.14-4.11-2.07-.95,1.89,3.64,1.83-.57,1.14-3.64-1.83-.98,1.95,4.16,2.1-.57,1.14-5.44-2.74,3.66-7.26Z"/><path class="cls-1" d="M174.74,114.01v-.02c.7-2.21,2.91-3.5,5.27-2.76,1.43,.45,2.14,1.22,2.66,2.16l-1.19,.74c-.44-.77-.99-1.37-1.87-1.64-1.49-.46-2.94,.42-3.42,1.94v.02c-.48,1.52,.21,3.1,1.69,3.56,.95,.3,1.69,.1,2.55-.31l.6,1.16c-1.07,.59-2.13,.84-3.58,.39-2.26-.71-3.4-3-2.7-5.23Z"/><path class="cls-1" d="M186.54,114.21l-2.55-.36,.19-1.31,6.54,.93-.19,1.31-2.55-.36-.96,6.74-1.43-.2,.96-6.74Z"/><path class="cls-1" d="M192.67,113.48l1.43,.04-.22,8.13-1.43-.04,.22-8.13Z"/><path class="cls-1" d="M196.61,117.74v-.02c-.25-2.28,1.3-4.37,3.79-4.64s4.42,1.43,4.66,3.71v.02c.25,2.28-1.3,4.37-3.79,4.64s-4.42-1.43-4.66-3.71Zm6.97-.75v-.02c-.17-1.57-1.46-2.75-3.06-2.58-1.61,.17-2.59,1.58-2.42,3.15v.02c.17,1.57,1.46,2.75,3.06,2.58,1.61-.17,2.59-1.58,2.42-3.15Z"/><path class="cls-1" d="M206.45,112.33l1.27-.39,5.8,4.11-1.64-5.38,1.35-.41,2.37,7.78-1.15,.35-5.97-4.23,1.68,5.54-1.35,.41-2.37-7.78Z"/><path class="cls-1" d="M218.9,107.68l3.12-1.9c.79-.48,1.55-.65,2.19-.49,.49,.12,.88,.4,1.17,.87v.02c.52,.83,.31,1.57-.04,2.15,.98-.22,1.83-.1,2.41,.85v.02c.77,1.24,.15,2.53-1.4,3.47l-3.22,1.96-4.23-6.95Zm4.65,1.18c.78-.48,1.12-1.1,.74-1.74v-.02c-.34-.55-.99-.62-1.77-.14l-1.76,1.07,1.12,1.85,1.67-1.01Zm2.14,2.72c.83-.51,1.14-1.14,.76-1.77v-.02c-.37-.59-1.05-.65-2.01-.06l-1.94,1.18,1.16,1.91,2.02-1.23Z"/><path class="cls-1" d="M228.58,106.41l-.02-.02c-1.52-1.71-1.47-4.32,.4-5.98,1.87-1.66,4.43-1.4,5.95,.31l.02,.02c1.52,1.71,1.47,4.32-.4,5.98s-4.43,1.4-5.95-.31Zm5.24-4.65l-.02-.02c-1.05-1.18-2.78-1.4-3.99-.33-1.21,1.07-1.19,2.78-.15,3.97l.02,.02c1.05,1.18,2.78,1.4,3.99,.33,1.21-1.07,1.19-2.78,.15-3.97Z"/><path class="cls-1" d="M233.46,96.28l1.86-2.4c1.57-2.02,4.04-2.34,5.84-.94h.02c1.81,1.42,2.13,3.9,.56,5.92l-1.86,2.4-6.43-4.99Zm7.26,1.79c1.05-1.35,.82-2.94-.44-3.91h-.02c-1.26-.99-2.87-.83-3.92,.52l-.98,1.27,4.37,3.39,.98-1.27Z"/><path class="cls-1" d="M244.05,89.71l-5.87,.46,.81-1.48,4.25-.26-2.05-3.75,.79-1.44,2.73,5.19,2.84,1.56-.69,1.26-2.81-1.54Z"/></g><g><path class="cls-1" d="M154.79,12.9l1.06-.79,7.76,4.45-1.21,.9-1.83-1.09-3.09,2.29,.5,2.08-1.18,.87-2.01-8.71Zm4.6,2.77l-3.07-1.78,.82,3.44,2.25-1.67Z"/><path class="cls-1" d="M162.55,12.52v-.02c-1.08-2.05-.42-4.53,1.76-5.67,1.33-.69,2.37-.65,3.41-.35l-.32,1.36c-.86-.23-1.66-.27-2.49,.16-1.38,.72-1.79,2.37-1.05,3.79v.02c.75,1.41,2.35,2.04,3.73,1.32,.89-.46,1.26-1.12,1.58-2.02l1.24,.4c-.34,1.18-.91,2.1-2.26,2.8-2.1,1.1-4.52,.27-5.6-1.8Z"/><path class="cls-1" d="M170.94,8.34v-.02c-.74-2.19,.3-4.54,2.64-5.32,1.42-.48,2.45-.27,3.42,.19l-.54,1.29c-.81-.37-1.6-.53-2.48-.24-1.48,.49-2.14,2.06-1.64,3.57v.02c.51,1.51,1.99,2.39,3.47,1.89,.95-.32,1.43-.91,1.88-1.74l1.17,.59c-.52,1.11-1.23,1.93-2.67,2.41-2.25,.75-4.51-.44-5.25-2.66Z"/><path class="cls-1" d="M179.82,1.39l3.58-.58c1.01-.16,1.85,0,2.45,.42,.5,.37,.83,.92,.95,1.62v.02c.22,1.32-.44,2.24-1.51,2.74l2.66,2.68-1.66,.27-2.43-2.48-1.77,.29,.46,2.8-1.41,.23-1.31-8.03Zm4.12,3.41c1.01-.16,1.57-.8,1.43-1.61v-.02c-.14-.86-.84-1.23-1.88-1.06l-2.05,.34,.44,2.69,2.06-.34Z"/><path class="cls-1" d="M189.69,.1l6.03-.1,.02,1.28-4.6,.07,.03,2.11,4.08-.07,.02,1.28-4.08,.07,.04,2.18,4.66-.08,.02,1.28-6.09,.1-.13-8.13Z"/><path class="cls-1" d="M199.21,.22l3,.44c2.53,.37,4.02,2.37,3.68,4.63v.02c-.34,2.26-2.35,3.76-4.88,3.39l-3-.44,1.19-8.05Zm2,7.2c1.69,.25,2.96-.72,3.2-2.3v-.02c.24-1.57-.69-2.9-2.38-3.15l-1.59-.24-.81,5.47,1.59,.24Z"/><path class="cls-1" d="M209.65,2.18l1.38,.38-2.18,7.84-1.38-.38,2.18-7.84Z"/><path class="cls-1" d="M215.79,5.56l-2.39-.96,.49-1.23,6.13,2.46-.49,1.23-2.39-.96-2.54,6.32-1.34-.54,2.54-6.32Z"/><path class="cls-1" d="M222.78,7.23l5.21,3.03-.64,1.1-3.98-2.32-1.06,1.83,3.53,2.05-.64,1.1-3.53-2.05-1.1,1.89,4.03,2.34-.64,1.1-5.26-3.06,4.09-7.03Z"/><path class="cls-1" d="M230.84,12.2l2.35,1.92c1.98,1.62,2.23,4.1,.78,5.87v.02c-1.46,1.77-3.96,2.03-5.94,.41l-2.35-1.92,5.15-6.3Zm-1.98,7.21c1.32,1.08,2.91,.9,3.92-.33v-.02c1.02-1.23,.9-2.85-.42-3.93l-1.24-1.02-3.5,4.28,1.24,1.02Z"/></g></g></svg>