<?xml version="1.0" encoding="UTF-8"?><svg id="ITSNZ_logo" xmlns="http://www.w3.org/2000/svg" xmlns:xlink="http://www.w3.org/1999/xlink" viewBox="0 0 247.72 121.85"><defs><style>.cls-1{fill:#06a89d;}.cls-2{fill:url(#linear-gradient-2);}.cls-3{fill:#444446;}.cls-4{fill:url(#linear-gradient);}</style><linearGradient id="linear-gradient" x1="247.72" y1="115.54" x2="224.2" y2="115.54" gradientUnits="userSpaceOnUse"><stop offset="0" stop-color="#fff"/><stop offset="1" stop-color="#444446"/></linearGradient><linearGradient id="linear-gradient-2" x1="0" y1="115.54" x2="23.52" y2="115.54" xlink:href="#linear-gradient"/></defs><g><path class="cls-1" d="M119.87,7.09c15.6-6.32,31.79-5.48,42.96,.99-12.02-8.98-30.95-10.91-49.03-3.58-8.15,3.3-16.04,8.69-21.45,14.29l6.03,3.37c5.28-5.76,13.19-11.7,21.49-15.07Z"/><path class="cls-1" d="M90.44,56.13c-3.1-7.66-2.36-16.14,1.39-24.06l-5.92-4.17c-5.5,9.58-6.96,20.27-3.07,29.85,7.82,19.31,34.37,26.78,59.29,16.68,9.43-3.82,17.28-9.62,22.97-16.39-5.12,5.22-11.7,9.69-19.4,12.81-23.39,9.48-48.13,2.88-55.26-14.73Z"/></g><path class="cls-1" d="M158.73,12.97c2.78,2.45,4.98,5.45,6.4,8.95,6.08,15.01-4.44,33.45-23.5,41.17-14.57,5.9-29.61,4.4-38.75-3.6l-2.86,2.85c9.07,10.34,26.77,12.8,43.91,5.86,20.42-8.27,31.87-27.57,25.58-43.1-2.09-5.17-5.89-9.26-10.78-12.12Z"/><path class="cls-3" d="M103.38,25.67v30.03h-3.76V28.42c0-1.52-1.23-2.75-2.75-2.75h6.51Z"/><path class="cls-3" d="M122.7,55.69c-1.51,0-2.73-1.22-2.75-2.72V28.97h8.62v-3.3h-20.99v3.3h8.6v26.73h6.51Z"/><path class="cls-3" d="M148.81,32.07v-6.19h-8.05s-9.1-.22-9.1,7.9c0,0-.47,6.58,8.85,8.07,0,0,5.7,1.05,5.84,5.57,0,0,.37,4.3-6.12,4.47,0,0-4.61-.02-7.15-3.58l-2.76,3.21s4.17,4.32,10.06,4.32c0,0,10.11,.22,10.29-8.57,0,0,.42-7.32-7.6-9.39,0,0-6.64-1.71-6.56-5,0,0-.61-3.75,4.62-4.4,0,0,4.85-.6,7.68,3.58Z"/><g><path class="cls-3" d="M6.65,88.55v.45c-.69,.17-1.16,.4-1.4,.69-.24,.29-.36,.89-.36,1.8v9.97c0,.7,.11,1.19,.34,1.47s.7,.52,1.42,.71v.45H0v-.45c.5-.14,.88-.29,1.12-.45,.25-.16,.42-.37,.52-.62,.1-.25,.15-.73,.15-1.44v-9.95c0-.7-.12-1.19-.35-1.47-.23-.28-.71-.52-1.44-.71v-.45H6.65Z"/><path class="cls-3" d="M18.71,89.01v-.45h4.75v.45c-1.36,.09-2.04,.94-2.04,2.55v12.74h-.46l-10.12-12.61v9.51c0,.83,.14,1.41,.41,1.74,.27,.33,.83,.57,1.66,.72v.45h-4.85v-.45c.66-.11,1.13-.36,1.42-.75,.29-.39,.43-.98,.43-1.8v-10.56c-.55-.62-.93-1.02-1.13-1.19-.21-.17-.45-.29-.73-.35v-.45h4.23l8.22,10.43v-7c0-1.03-.12-1.74-.37-2.14-.24-.39-.71-.67-1.39-.84Z"/><path class="cls-3" d="M32.96,88.15v4.1h-.41c-.27-.91-.74-1.67-1.41-2.29s-1.36-.93-2.07-.93c-.64,0-1.19,.2-1.63,.61s-.67,.9-.67,1.49c0,.29,.06,.57,.18,.85,.12,.28,.29,.54,.51,.79,.22,.24,.94,.78,2.16,1.62,1.24,.84,2.04,1.42,2.4,1.75,.36,.33,.7,.75,1.03,1.26,.5,.79,.75,1.65,.75,2.59,0,1.39-.44,2.49-1.32,3.3-.88,.81-1.95,1.22-3.2,1.22-.67,0-1.48-.13-2.41-.4-.49-.14-.84-.21-1.03-.21-.33,0-.57,.17-.72,.51h-.41v-4.69h.41c.21,1.21,.65,2.17,1.32,2.86,.67,.7,1.48,1.05,2.46,1.05,.75,0,1.37-.21,1.86-.62,.49-.42,.73-.94,.73-1.58,0-.52-.16-1.01-.47-1.47-.31-.46-1.15-1.14-2.52-2.04-1.25-.83-2.08-1.47-2.49-1.92-.41-.45-.71-.96-.92-1.51s-.31-1.15-.31-1.77c0-1.33,.41-2.43,1.24-3.28,.83-.85,1.89-1.27,3.18-1.27,.4,0,.88,.07,1.44,.22,.56,.14,.96,.21,1.2,.21s.47-.14,.73-.43h.41Z"/><path class="cls-3" d="M35.5,88.55h7.22c1.49,0,2.66,.38,3.52,1.14s1.29,1.75,1.29,2.97c0,1.32-.48,2.39-1.43,3.23-.95,.84-2.26,1.26-3.93,1.26-.58,0-1.17-.04-1.79-.13v4.44c0,.7,.13,1.21,.38,1.52,.25,.31,.71,.53,1.38,.66v.45h-6.65v-.45c.71-.16,1.19-.39,1.43-.71,.24-.32,.36-.87,.36-1.66v-10.16c0-.71-.11-1.2-.34-1.47-.23-.27-.71-.49-1.44-.66v-.45Zm6.07,.88h-1.19v6.68c.36,.12,.71,.18,1.03,.18,.86,0,1.54-.31,2.02-.92,.49-.61,.73-1.47,.73-2.57,0-1-.24-1.82-.72-2.44s-1.1-.93-1.88-.93Z"/><path class="cls-3" d="M57.9,93.92h.46v4.82h-.46c-.16-1.32-.81-1.99-1.95-1.99h-2.48v4.57c0,.7,.14,1.19,.43,1.48,.29,.29,.79,.43,1.49,.43h.82c1.38,0,2.36-.97,2.95-2.9h.41l-.26,3.78h-10.71v-.45c.71-.16,1.18-.4,1.41-.71,.23-.31,.35-.9,.35-1.79v-10c0-.73-.12-1.23-.36-1.51-.24-.28-.71-.5-1.4-.64v-.45h10.55v3.45h-.41c-.23-1.01-.53-1.69-.88-2.05s-.91-.53-1.67-.53h-2.72v6.43h2.48c.56,0,.99-.15,1.29-.44,.3-.3,.52-.8,.66-1.5Z"/><path class="cls-3" d="M73.97,93.98h-.39c-.32-1.57-.9-2.78-1.74-3.65-.84-.87-1.86-1.3-3.05-1.3-1.31,0-2.35,.61-3.12,1.83-.77,1.22-1.16,2.86-1.16,4.92,0,2.29,.45,4.07,1.35,5.32,.9,1.26,2.14,1.88,3.72,1.88,.85,0,1.64-.19,2.35-.58,.71-.39,1.44-1.02,2.17-1.88v.82c-1.39,2.11-3.29,3.17-5.7,3.17-2.15,0-3.9-.74-5.25-2.21-1.35-1.48-2.02-3.39-2.02-5.75s.73-4.39,2.18-5.99,3.26-2.41,5.42-2.41c.88,0,1.88,.22,3,.65,.48,.19,.8,.29,.98,.29,.34,0,.63-.27,.87-.81h.39v5.7Z"/><path class="cls-3" d="M84.94,103.66v.45h-6.6v-.45c.69-.15,1.16-.37,1.4-.68s.36-.86,.36-1.66v-11.88h-1.41c-.85,0-1.52,.2-2.02,.61s-.87,1.05-1.11,1.94h-.41l.14-3.75h.43c.3,.22,.77,.32,1.39,.32h9.08c.63,0,1.1-.11,1.39-.32h.43l.14,3.75h-.41c-.24-.88-.61-1.53-1.11-1.94-.5-.41-1.17-.61-2.02-.61h-1.41v11.91c0,.76,.12,1.31,.36,1.63,.24,.32,.7,.55,1.36,.68Z"/><path class="cls-3" d="M96.13,88.55v.45c-.69,.17-1.16,.4-1.4,.69-.24,.29-.36,.89-.36,1.8v9.97c0,.7,.11,1.19,.34,1.47s.7,.52,1.42,.71v.45h-6.65v-.45c.5-.14,.88-.29,1.12-.45,.25-.16,.42-.37,.52-.62,.1-.25,.15-.73,.15-1.44v-9.95c0-.7-.12-1.19-.35-1.47-.23-.28-.71-.52-1.44-.71v-.45h6.65Z"/><path class="cls-3" d="M113.53,96.34c0,2.38-.72,4.34-2.16,5.87-1.44,1.53-3.28,2.3-5.52,2.3s-4.06-.77-5.5-2.3c-1.43-1.53-2.15-3.49-2.15-5.87s.72-4.34,2.16-5.88,3.27-2.31,5.49-2.31,4.08,.77,5.52,2.31,2.16,3.5,2.16,5.88Zm-3.37,.1c0-2.42-.37-4.26-1.1-5.52-.73-1.26-1.8-1.9-3.21-1.9s-2.45,.63-3.18,1.9c-.73,1.26-1.09,3.11-1.09,5.55,0,2.26,.37,4.02,1.1,5.27,.74,1.26,1.79,1.88,3.17,1.88s2.41-.62,3.17-1.87c.76-1.25,1.14-3.02,1.14-5.31Z"/><path class="cls-3" d="M125.49,89.01v-.45h4.75v.45c-1.36,.09-2.04,.94-2.04,2.55v12.74h-.46l-10.12-12.61v9.51c0,.83,.14,1.41,.41,1.74,.27,.33,.83,.57,1.66,.72v.45h-4.85v-.45c.66-.11,1.13-.36,1.42-.75,.29-.39,.43-.98,.43-1.8v-10.56c-.55-.62-.93-1.02-1.13-1.19-.21-.17-.45-.29-.73-.35v-.45h4.23l8.22,10.43v-7c0-1.03-.12-1.74-.37-2.14-.24-.39-.71-.67-1.39-.84Z"/><path class="cls-3" d="M139.36,91.88c0-1.08,.42-1.97,1.25-2.68s1.94-1.05,3.32-1.05c1.25,0,2.23,.27,2.94,.81,.7,.54,1.06,1.29,1.06,2.25,0,.86-.3,1.63-.9,2.29s-1.41,1.11-2.44,1.34c1.59,1.82,2.78,3.28,3.58,4.37,.61-1.21,.91-2.16,.91-2.84,0-.76-.31-1.27-.92-1.52v-.45h4.15v.45c-.46,.14-.86,.4-1.19,.79s-.82,1.24-1.45,2.58c-.35,.76-.64,1.36-.87,1.81,.79,.99,1.43,1.68,1.94,2.07,.51,.39,1,.58,1.49,.58,.43,0,.82-.19,1.18-.56l.31,.31c-.78,1.4-1.94,2.1-3.49,2.1-.65,0-1.23-.14-1.74-.42-.51-.28-1.07-.76-1.69-1.45-1.53,1.25-3.12,1.87-4.77,1.87-1.37,0-2.49-.38-3.35-1.14s-1.29-1.74-1.29-2.94c0-2.02,1.23-3.65,3.7-4.88-.62-.76-1.06-1.42-1.33-1.99-.27-.56-.4-1.13-.4-1.69Zm1.03,6.78c0,1.15,.34,2.15,1.03,2.99s1.5,1.27,2.44,1.27c.81,0,1.6-.34,2.37-1.02-2.15-2.9-3.66-4.77-4.53-5.63-.49,.38-.83,.75-1.03,1.1s-.29,.78-.29,1.28Zm1.63-7.8c0,.46,.14,.93,.41,1.4,.27,.48,.77,1.08,1.47,1.81,.42-.14,.76-.38,1.02-.72,.26-.34,.39-.72,.39-1.13,0-.8-.19-1.49-.57-2.07s-.82-.88-1.33-.88c-.42,0-.76,.14-1.02,.43-.25,.29-.38,.68-.38,1.16Z"/><path class="cls-3" d="M167.09,103.66v.45h-6.6v-.45c.69-.15,1.16-.37,1.4-.68,.24-.3,.36-.86,.36-1.66v-11.88h-1.41c-.85,0-1.52,.2-2.02,.61s-.87,1.05-1.11,1.94h-.41l.14-3.75h.43c.31,.22,.77,.32,1.39,.32h9.08c.63,0,1.1-.11,1.39-.32h.43l.14,3.75h-.41c-.24-.88-.61-1.53-1.11-1.94-.5-.41-1.17-.61-2.02-.61h-1.41v11.91c0,.76,.12,1.31,.36,1.63,.24,.32,.7,.55,1.36,.68Z"/><path class="cls-3" d="M180.66,93.92h.46v4.82h-.46c-.16-1.32-.81-1.99-1.95-1.99h-2.48v4.57c0,.7,.14,1.19,.43,1.48,.29,.29,.79,.43,1.49,.43h.82c1.38,0,2.36-.97,2.95-2.9h.41l-.26,3.78h-10.71v-.45c.71-.16,1.18-.4,1.41-.71,.23-.31,.35-.9,.35-1.79v-10c0-.73-.12-1.23-.36-1.51-.24-.28-.71-.5-1.4-.64v-.45h10.55v3.45h-.41c-.24-1.01-.53-1.69-.88-2.05s-.91-.53-1.67-.53h-2.72v6.43h2.48c.56,0,.99-.15,1.29-.44,.3-.3,.52-.8,.66-1.5Z"/><path class="cls-3" d="M192.03,88.15v4.1h-.41c-.27-.91-.74-1.67-1.41-2.29s-1.36-.93-2.07-.93c-.64,0-1.19,.2-1.63,.61s-.67,.9-.67,1.49c0,.29,.06,.57,.18,.85,.12,.28,.29,.54,.51,.79,.22,.24,.94,.78,2.16,1.62,1.24,.84,2.04,1.42,2.4,1.75s.7,.75,1.03,1.26c.5,.79,.75,1.65,.75,2.59,0,1.39-.44,2.49-1.32,3.3-.88,.81-1.95,1.22-3.2,1.22-.67,0-1.48-.13-2.41-.4-.49-.14-.84-.21-1.03-.21-.33,0-.57,.17-.72,.51h-.41v-4.69h.41c.21,1.21,.65,2.17,1.32,2.86,.67,.7,1.48,1.05,2.46,1.05,.75,0,1.37-.21,1.86-.62,.49-.42,.73-.94,.73-1.58,0-.52-.16-1.01-.47-1.47-.31-.46-1.15-1.14-2.52-2.04-1.25-.83-2.08-1.47-2.49-1.92-.41-.45-.71-.96-.92-1.51s-.31-1.15-.31-1.77c0-1.33,.41-2.43,1.24-3.28s1.89-1.27,3.18-1.27c.4,0,.88,.07,1.44,.22,.56,.14,.96,.21,1.2,.21s.47-.14,.73-.43h.41Z"/><path class="cls-3" d="M203.92,103.66v.45h-6.6v-.45c.69-.15,1.16-.37,1.4-.68,.24-.3,.36-.86,.36-1.66v-11.88h-1.41c-.85,0-1.52,.2-2.02,.61s-.87,1.05-1.11,1.94h-.41l.14-3.75h.43c.31,.22,.77,.32,1.39,.32h9.08c.63,0,1.1-.11,1.39-.32h.43l.14,3.75h-.41c-.24-.88-.61-1.53-1.11-1.94-.5-.41-1.17-.61-2.02-.61h-1.41v11.91c0,.76,.12,1.31,.36,1.63,.24,.32,.7,.55,1.36,.68Z"/><path class="cls-3" d="M215.11,88.55v.45c-.69,.17-1.16,.4-1.4,.69-.24,.29-.36,.89-.36,1.8v9.97c0,.7,.11,1.19,.34,1.47s.7,.52,1.42,.71v.45h-6.65v-.45c.5-.14,.88-.29,1.12-.45,.25-.16,.42-.37,.52-.62,.1-.25,.15-.73,.15-1.44v-9.95c0-.7-.12-1.19-.35-1.47-.23-.28-.71-.52-1.44-.71v-.45h6.65Z"/><path class="cls-3" d="M227.17,89.01v-.45h4.75v.45c-1.36,.09-2.04,.94-2.04,2.55v12.74h-.46l-10.12-12.61v9.51c0,.83,.14,1.41,.41,1.74s.83,.57,1.66,.72v.45h-4.85v-.45c.66-.11,1.13-.36,1.42-.75s.43-.98,.43-1.8v-10.56c-.55-.62-.93-1.02-1.13-1.19-.21-.17-.45-.29-.73-.35v-.45h4.23l8.22,10.43v-7c0-1.03-.12-1.74-.37-2.14-.25-.39-.71-.67-1.39-.84Z"/><path class="cls-3" d="M246.35,88.55v4.36h-.43c-.42-1.19-1.06-2.13-1.93-2.83-.87-.7-1.84-1.05-2.9-1.05-1.42,0-2.53,.67-3.31,2.01-.78,1.34-1.17,3.23-1.17,5.68,0,2.25,.39,3.97,1.16,5.14,.77,1.18,1.89,1.77,3.36,1.77s2.11-.55,2.11-1.65v-2.31c0-1.07-.48-1.7-1.44-1.91v-.45h5.92v.45c-.52,.16-.88,.4-1.07,.75-.2,.34-.3,.87-.3,1.59v3.3c-1.41,.74-3.23,1.12-5.46,1.12-1.49,0-2.81-.34-3.96-1.03-1.15-.68-2.05-1.66-2.71-2.92-.65-1.26-.98-2.63-.98-4.12,0-2.38,.72-4.36,2.17-5.94s3.27-2.36,5.47-2.36c.87,0,1.82,.2,2.84,.61,.54,.22,.93,.32,1.17,.32,.36,0,.7-.18,1.01-.53h.43Z"/></g><g><path class="cls-1" d="M31.94,109.5h.35v2.79h-.37c-.08-.77-.38-1.37-.88-1.8s-1.13-.65-1.88-.65c-.67,0-1.21,.16-1.62,.49-.41,.32-.62,.76-.62,1.3,0,.5,.17,.96,.51,1.37,.34,.41,1.08,.94,2.21,1.59,1.32,.75,2.2,1.4,2.65,1.97s.68,1.2,.68,1.92c0,.93-.35,1.73-1.04,2.39-.69,.66-1.53,.99-2.5,.99-.57,0-1.29-.15-2.16-.45-.36-.12-.59-.18-.69-.18-.21,0-.36,.15-.48,.46h-.37v-3.21h.37c0,.88,.31,1.59,.91,2.13,.6,.53,1.29,.8,2.09,.8,.76,0,1.36-.19,1.82-.58s.68-.9,.68-1.54c0-.48-.19-.94-.56-1.38-.38-.44-1.16-1.01-2.35-1.7-.97-.57-1.62-1.02-1.94-1.35-.32-.33-.57-.69-.72-1.09-.16-.39-.23-.83-.23-1.3,0-.91,.31-1.65,.94-2.22s1.44-.85,2.45-.85c.55,0,1.15,.11,1.8,.31,.3,.09,.52,.14,.64,.14,.1,0,.17-.02,.2-.06,.04-.04,.07-.13,.12-.27Z"/><path class="cls-1" d="M42.25,114.17h.37v2.89h-.37c-.13-.51-.3-.82-.49-.95-.19-.13-.61-.19-1.25-.19h-3.09v4.25c0,.3,.07,.51,.21,.63,.14,.12,.37,.18,.71,.18h2.18c.78,0,1.32-.04,1.61-.12,.3-.08,.55-.23,.75-.45,.21-.22,.42-.58,.66-1.07h.37l-.57,2.22h-8.97v-.34c.56,0,.93-.14,1.12-.41,.19-.27,.29-.76,.29-1.46v-7.43c0-.72-.1-1.22-.3-1.49s-.57-.41-1.11-.41v-.34h8.97v1.99h-.23c-.13-.57-.31-.94-.55-1.13-.24-.19-.75-.28-1.54-.28h-3.59v5.09h3.48c.47,0,.8-.08,.97-.24,.17-.16,.3-.47,.38-.92Z"/><path class="cls-1" d="M49.51,116.06h-1.01v3.27c0,.7,.1,1.19,.31,1.47s.58,.42,1.11,.42v.34h-4.48v-.34c.55,0,.92-.14,1.12-.42,.2-.28,.29-.77,.29-1.47v-7.45c0-.7-.1-1.19-.29-1.46-.19-.27-.57-.4-1.12-.4v-.34h5.1c1.26,0,2.27,.29,3.02,.88,.75,.58,1.13,1.33,1.13,2.23,0,1.46-.86,2.43-2.57,2.92,.38,.23,.74,.55,1.1,.95,.36,.4,.83,1.07,1.41,2,.65,1.03,1.16,1.71,1.53,2.04,.37,.32,.75,.5,1.14,.52v.34h-2.55c-.52-.6-1.16-1.48-1.9-2.65-.79-1.22-1.41-2.01-1.86-2.34-.45-.34-.95-.51-1.49-.51Zm.3-5.93h-1.3v5.43h1.53c.91,0,1.63-.25,2.15-.75,.52-.5,.78-1.16,.78-1.99s-.29-1.45-.87-1.95c-.58-.5-1.34-.74-2.29-.74Z"/><path class="cls-1" d="M68.06,109.68v.36c-.91,0-1.67,.77-2.26,2.31l-3.67,9.37h-.35l-3.85-9.64c-.36-.89-.67-1.45-.93-1.69-.26-.23-.64-.36-1.13-.37v-.34h4.52v.34c-.73,0-1.09,.27-1.09,.8,0,.18,.05,.37,.14,.6l3.05,7.67,2.89-7.4c.12-.32,.18-.59,.18-.82,0-.56-.37-.84-1.11-.84v-.34h3.63Z"/><path class="cls-1" d="M73.42,109.68v.34c-.53,0-.9,.14-1.1,.42-.21,.28-.31,.77-.31,1.48v7.41c0,.71,.1,1.2,.31,1.48,.21,.27,.57,.41,1.1,.41v.34h-4.48v-.34c.54,0,.92-.14,1.11-.41s.3-.76,.3-1.48v-7.41c0-.73-.1-1.23-.29-1.5-.19-.27-.57-.4-1.12-.4v-.34h4.48Z"/><path class="cls-1" d="M86.25,109.5v3.55h-.37c-.3-1.1-.77-1.91-1.43-2.43s-1.53-.78-2.62-.78c-1.42,0-2.54,.49-3.36,1.46-.83,.97-1.24,2.27-1.24,3.89,0,1.78,.44,3.21,1.31,4.29,.87,1.08,2.02,1.63,3.43,1.63,1.96,0,3.41-.87,4.34-2.61l.33,.29c-.42,.95-1.09,1.69-2.02,2.24-.93,.55-1.99,.83-3.18,.83-1.12,0-2.17-.25-3.13-.76-.96-.51-1.7-1.2-2.22-2.09-.52-.89-.78-1.91-.78-3.06,0-1.89,.61-3.46,1.83-4.7,1.22-1.24,2.75-1.86,4.61-1.86,.62,0,1.41,.11,2.37,.31,.54,.12,.91,.18,1.11,.18,.32,0,.54-.12,.67-.37h.35Z"/><path class="cls-1" d="M96,114.17h.37v2.89h-.37c-.13-.51-.3-.82-.49-.95-.19-.13-.61-.19-1.25-.19h-3.09v4.25c0,.3,.07,.51,.21,.63,.14,.12,.37,.18,.71,.18h2.18c.78,0,1.32-.04,1.61-.12,.3-.08,.55-.23,.75-.45,.21-.22,.42-.58,.66-1.07h.37l-.57,2.22h-8.97v-.34c.56,0,.93-.14,1.12-.41,.19-.27,.29-.76,.29-1.46v-7.43c0-.72-.1-1.22-.3-1.49s-.57-.41-1.11-.41v-.34h8.97v1.99h-.23c-.13-.57-.31-.94-.55-1.13-.24-.19-.75-.28-1.54-.28h-3.59v5.09h3.48c.47,0,.8-.08,.97-.24,.17-.16,.3-.47,.38-.92Z"/><path class="cls-1" d="M105.83,109.5h.35v2.79h-.37c-.08-.77-.38-1.37-.88-1.8s-1.13-.65-1.88-.65c-.67,0-1.21,.16-1.62,.49-.41,.32-.62,.76-.62,1.3,0,.5,.17,.96,.51,1.37,.34,.41,1.08,.94,2.21,1.59,1.32,.75,2.2,1.4,2.65,1.97s.68,1.2,.68,1.92c0,.93-.35,1.73-1.04,2.39-.69,.66-1.53,.99-2.5,.99-.57,0-1.29-.15-2.16-.45-.36-.12-.59-.18-.69-.18-.21,0-.36,.15-.48,.46h-.37v-3.21h.37c0,.88,.31,1.59,.91,2.13,.6,.53,1.29,.8,2.09,.8,.76,0,1.36-.19,1.82-.58s.68-.9,.68-1.54c0-.48-.19-.94-.56-1.38-.38-.44-1.16-1.01-2.35-1.7-.97-.57-1.62-1.02-1.94-1.35-.32-.33-.57-.69-.72-1.09-.16-.39-.23-.83-.23-1.3,0-.91,.31-1.65,.94-2.22s1.44-.85,2.45-.85c.55,0,1.15,.11,1.8,.31,.3,.09,.52,.14,.64,.14,.1,0,.17-.02,.2-.06,.04-.04,.07-.13,.12-.27Z"/><path class="cls-1" d="M108.77,117.52h4.26v.78h-4.26v-.78Z"/><path class="cls-1" d="M124.22,110.02v-.34h3.76v.34c-.6,0-1.02,.14-1.25,.41-.23,.27-.35,.76-.35,1.47v9.66h-.38l-8.82-10.33v8.34c0,.59,.12,1.01,.38,1.26,.25,.25,.67,.38,1.26,.38v.34h-3.78v-.34c.6,0,1.01-.15,1.22-.45,.21-.3,.32-.83,.32-1.59v-6.95c0-.75-.14-1.29-.43-1.62-.29-.33-.76-.52-1.42-.58v-.34h3.19l7.82,9.25v-6.95c0-.73-.11-1.24-.32-1.52s-.61-.43-1.19-.43Z"/><path class="cls-1" d="M140,118.69h.37l-.46,2.87h-10.44v-.31l8.2-10.99h-5.37c-.79,0-1.35,.1-1.7,.3s-.61,.58-.79,1.15h-.35l.2-2.03h10.12v.36l-8.14,10.94h4.69c1.03,0,1.83-.18,2.39-.53s.98-.94,1.26-1.76Z"/><path class="cls-1" d="M156.28,118.96h.37l-.76,2.59h-9.02v-.34c.51,0,.87-.15,1.09-.46,.22-.3,.32-.81,.32-1.53v-7.48c0-.64-.1-1.09-.3-1.34-.2-.25-.57-.38-1.11-.38v-.34h4.46v.34c-.5,0-.85,.15-1.07,.44-.22,.29-.32,.77-.32,1.44v7.94c0,.44,.1,.74,.29,.9,.19,.16,.57,.24,1.12,.24h2.47c.76,0,1.3-.13,1.6-.38,.3-.25,.59-.8,.86-1.64Z"/><path class="cls-1" d="M161.87,109.68v.34c-.53,0-.9,.14-1.1,.42-.21,.28-.31,.77-.31,1.48v7.41c0,.71,.1,1.2,.31,1.48,.21,.27,.57,.41,1.1,.41v.34h-4.48v-.34c.54,0,.92-.14,1.11-.41,.2-.27,.3-.76,.3-1.48v-7.41c0-.73-.1-1.23-.29-1.5-.19-.27-.57-.4-1.12-.4v-.34h4.48Z"/><path class="cls-1" d="M174.89,109.68h2.94v.34c-.93,.02-1.4,.55-1.4,1.58,0,.09,0,.18,.01,.27l.63,7.32c.07,.78,.21,1.3,.42,1.56,.21,.26,.58,.41,1.13,.46v.34h-4.48v-.34c.48-.08,.81-.22,1-.45,.2-.22,.29-.57,.29-1.03,0-.09,0-.2-.01-.32l-.67-7.68-4.26,9.82h-.33l-4.21-9.8-.7,7.31c0,.11-.01,.22-.01,.32,0,1.02,.54,1.63,1.62,1.82v.34h-3.87v-.34c.52-.07,.89-.24,1.12-.52,.23-.28,.39-.84,.47-1.67l.75-8.17c-.44-.45-.98-.73-1.62-.83v-.34h3.15l3.98,9.35,4.04-9.35Z"/><path class="cls-1" d="M184.27,109.68v.34c-.53,0-.9,.14-1.1,.42-.21,.28-.31,.77-.31,1.48v7.41c0,.71,.1,1.2,.31,1.48,.21,.27,.57,.41,1.1,.41v.34h-4.48v-.34c.54,0,.92-.14,1.11-.41,.2-.27,.3-.76,.3-1.48v-7.41c0-.73-.1-1.23-.29-1.5-.19-.27-.57-.4-1.12-.4v-.34h4.48Z"/><path class="cls-1" d="M193.65,110.25h-1.89v9.13c0,.72,.09,1.2,.28,1.45,.18,.25,.54,.38,1.07,.38v.34h-4.4v-.34c.55,0,.92-.14,1.12-.43,.2-.29,.29-.77,.29-1.45v-9.07h-1.8c-.86,0-1.49,.13-1.88,.39s-.61,.7-.66,1.31h-.37v-2.72h.37c.33,.3,.96,.45,1.87,.45h6.53c.94,0,1.6-.15,1.97-.45h.39v2.72h-.24c-.16-.66-.43-1.1-.83-1.34-.4-.24-1-.36-1.8-.36Z"/><path class="cls-1" d="M205.71,114.17h.37v2.89h-.37c-.13-.51-.3-.82-.49-.95-.19-.13-.61-.19-1.25-.19h-3.09v4.25c0,.3,.07,.51,.21,.63s.37,.18,.71,.18h2.17c.78,0,1.32-.04,1.61-.12s.55-.23,.75-.45c.21-.22,.42-.58,.66-1.07h.37l-.57,2.22h-8.97v-.34c.56,0,.93-.14,1.12-.41,.19-.27,.29-.76,.29-1.46v-7.43c0-.72-.1-1.22-.3-1.49-.2-.27-.57-.41-1.11-.41v-.34h8.97v1.99h-.23c-.13-.57-.31-.94-.55-1.13-.24-.19-.75-.28-1.54-.28h-3.59v5.09h3.48c.47,0,.8-.08,.97-.24,.17-.16,.3-.47,.38-.92Z"/><path class="cls-1" d="M208.84,121.56v-.34c.53,0,.9-.14,1.11-.42,.2-.28,.31-.77,.31-1.47v-7.41c0-.71-.1-1.2-.31-1.48-.2-.28-.57-.42-1.11-.42v-.34h5.76c2.13,0,3.83,.58,5.11,1.73,1.28,1.15,1.91,2.62,1.91,4.41s-.6,3.14-1.81,4.18c-1.21,1.04-2.89,1.56-5.05,1.56h-5.92Zm5.42-11.43h-2.37v8.77c0,.84,.11,1.42,.32,1.73,.21,.31,.64,.47,1.27,.47h1.28c1.53,0,2.73-.47,3.61-1.41,.88-.94,1.32-2.23,1.32-3.85,0-1.73-.48-3.11-1.44-4.15-.96-1.04-2.29-1.55-4-1.55Z"/></g><rect class="cls-4" x="224.2" y="114.48" width="23.52" height="2.12"/><rect class="cls-2" y="114.48" width="23.52" height="2.12"/></svg>