<?xml version="1.0" encoding="UTF-8"?><svg id="LloydsRegister-logo" xmlns="http://www.w3.org/2000/svg" viewBox="0 0 247.72 121.85"><defs><style>.cls-1{fill:#fff;}.cls-2{fill:#143b62;}.cls-3{fill:#4f98d3;}</style></defs><rect class="cls-3" width="103.9" height="114.27"/><polygon class="cls-1" points="65.82 89.64 26.87 89.64 26.87 11.28 16.69 11.28 16.69 98.52 65.82 98.52 65.82 89.64"/><path class="cls-1" d="M79.09,37.27c0,10.99-7.68,17.27-20.76,17.27h-11.6l35.9,44h12.39l-29.52-35.97c14.76-1.29,23.69-11.39,23.69-25.29,0-16.28-10.97-26-29.52-26h-12.92v8.85h11.97c13.08,0,20.37,6.25,20.37,17.15"/><polygon class="cls-2" points="137.22 77.38 137.22 79.49 124.78 79.49 124.78 54.54 127.21 54.54 127.21 77.38 137.22 77.38"/><polygon class="cls-2" points="142.09 54.54 142.09 70.09 142.09 79.49 139.88 79.49 139.88 69.92 139.88 54.54 142.09 54.54"/><path class="cls-2" d="M154.03,63.1c-3.82,0-5.89,3.32-5.89,7.47s2.07,7.47,5.89,7.47,5.93-3.36,5.93-7.47-2.07-7.47-5.93-7.47m0,16.82c-5.76,0-8.33-4.5-8.33-9.36s2.57-9.36,8.33-9.36,8.37,4.47,8.37,9.36-2.58,9.36-8.37,9.36"/><path class="cls-2" d="M176.25,61.62h2.32l-7.15,20.55c-.41,1.36-1.09,2.63-2,3.72-.72,.77-1.73,1.19-2.78,1.16-.71,.01-1.41-.09-2.08-.32v-1.88c.55,.22,1.14,.33,1.74,.32,1.86,0,2.54-1.57,3.22-3.9l.46-1.57-6.38-18.08h2.43l5,14.9h.03l5.19-14.9Z"/><path class="cls-2" d="M187.76,63.1c-4.22,0-5.29,4-5.29,7.47s1.07,7.47,5.29,7.47c3.93,0,5.29-4.22,5.29-7.47s-1.36-7.47-5.29-7.47m7.51-8.55v24.95h-2.2v-2.83h-.07c-1.22,2.26-3,3.25-5.58,3.25-4.9,0-7.36-4.06-7.36-9.36s2.29-9.37,7.36-9.37c2.37-.04,4.55,1.3,5.58,3.43h.07v-10.09h2.2Z"/><polygon class="cls-2" points="200.56 54.54 202.74 54.54 200.88 61.64 198.7 61.64 200.56 54.54"/><path class="cls-2" d="M207.76,79.92c-1.7,.04-3.39-.25-4.97-.85v-2.22c1.49,.77,3.15,1.17,4.83,1.16,2.11,0,3.97-1.16,3.97-3.22,0-4.22-8.58-3.57-8.58-8.75,0-3.54,2.86-4.86,5.8-4.86,1.47-.01,2.93,.28,4.29,.85v1.93c-1.27-.6-2.66-.9-4.06-.89-2.61,0-3.82,1.07-3.82,2.72,0,1.29,.68,1.93,2.14,2.65,2.68,1.25,6.65,2.57,6.65,6.38s-3.53,5.11-6.24,5.11"/><path class="cls-2" d="M129.8,91.43h-2.58v8.93h2.65c2.9,0,6.23-1.11,6.23-4.61,0-4.06-2.9-4.33-6.29-4.33m10.65,22.84h-2.68l-3.54-8.33c-1.39-3.28-2.57-3.48-4.93-3.48h-2.08v11.81h-2.43v-24.95h6.43c4.44,0,7.3,1.86,7.3,6.44,0,3.21-2.43,5.22-5.33,5.75v.08c.77,.15,1.46,.56,1.97,1.16,.22,.28,.42,.58,.58,.89,.18,.36,.36,.71,.53,1.16l4.18,9.47Z"/><path class="cls-2" d="M153.9,103.8c0-2.86-1.25-5.93-4.54-5.93s-5.19,3.07-5.26,5.93h9.79Zm2.4,1.89h-12.18c0,4.06,2.04,7.12,5.87,7.12,1.81-.06,3.58-.53,5.18-1.36v2.13c-1.7,.72-3.52,1.12-5.36,1.16-5.9,0-8.12-4-8.12-9.36s3-9.37,7.54-9.37c5.04,0,7.07,3.97,7.07,8.62v1.07Z"/><path class="cls-2" d="M166.96,97.86c-4.22,0-5.29,4-5.29,7.47s1.4,7.04,5.15,7.04c4,0,5.43-3.79,5.43-7.04,0-4.33-1.29-7.47-5.29-7.47m7.51-1.47v16.41c0,4.97-2.25,9.05-8.4,9.05-1.85-.01-3.68-.36-5.4-1.04v-2.18c1.7,.82,3.55,1.27,5.43,1.32,5.69,0,6.18-4.15,6.18-9.19h-.07c-1.22,2.58-3.14,3.48-5.44,3.48-5.72,0-7.54-4.97-7.54-8.93,0-5.44,2.11-9.36,7.37-9.36,2.39,0,4.18,.58,5.58,2.47h.07v-2.04l2.22,.02Z"/><path class="cls-2" d="M181.21,114.27h-2.22v-17.87h2.22v17.87Zm0-21.34h-2.22v-2.93h2.22v2.93Z"/><path class="cls-2" d="M189.71,114.7c-1.7,.04-3.38-.25-4.97-.86v-2.22c1.49,.77,3.15,1.17,4.83,1.16,2.11,0,3.97-1.16,3.97-3.21,0-4.22-8.58-3.57-8.58-8.76,0-3.54,2.86-4.86,5.8-4.86,1.48-.01,2.94,.28,4.29,.86v1.93c-1.27-.59-2.66-.9-4.06-.89-2.6,0-3.82,1.07-3.82,2.72,0,1.28,.68,1.93,2.15,2.64,2.67,1.25,6.65,2.58,6.65,6.38s-3.54,5.11-6.26,5.11"/><path class="cls-2" d="M206.68,114.2c-.85,.32-1.74,.49-2.65,.5-.91,.04-1.8-.22-2.54-.75-1.21-.86-1.53-2.43-1.53-4.86v-10.8h-2.83v-1.9h2.86v-4.32l2.21-.79v5.11h4.06v1.9h-4.06v11.55c0,1.74,.58,2.97,2.4,2.97,.73,0,1.45-.16,2.11-.46l-.03,1.86Z"/><path class="cls-2" d="M219.95,103.8c0-2.86-1.25-5.93-4.54-5.93s-5.18,3.07-5.22,5.93h9.76Zm2.4,1.89h-12.18c0,4.06,2.04,7.12,5.86,7.12,1.81-.06,3.58-.53,5.19-1.36v2.13c-1.7,.72-3.52,1.12-5.37,1.16-5.89,0-8.12-4-8.12-9.36s3-9.37,7.54-9.37c5.04,0,7.08,3.97,7.08,8.62v1.07Z"/><path class="cls-2" d="M234.2,98.49c-.52-.15-1.07-.22-1.61-.21-3.48,0-4.43,3.93-4.43,7.15v8.85h-2.22v-13.87c.04-1.34-.01-2.67-.15-4h2.22v3.43h.07c.71-2.08,2.22-3.83,4.5-3.83,.54,0,1.09,.08,1.61,.22v2.27Z"/></svg>